<svg width="16" height="16" viewBox="0 0 16 16" fill="none" xmlns="http://www.w3.org/2000/svg">
<path d="M4.64597 7.64622L9.64597 2.64622C9.69243 2.59976 9.74758 2.56291 9.80827 2.53777C9.86897 2.51263 9.93402 2.49969 9.99972 2.49969C10.0654 2.49969 10.1305 2.51263 10.1912 2.53777C10.2519 2.56291 10.307 2.59976 10.3535 2.64622C10.3999 2.69267 10.4368 2.74782 10.4619 2.80852C10.4871 2.86921 10.5 2.93427 10.5 2.99997C10.5 3.06566 10.4871 3.13072 10.4619 3.19141C10.4368 3.25211 10.3999 3.30726 10.3535 3.35372L5.7066 7.99997L10.3535 12.6462C10.4473 12.74 10.5 12.8673 10.5 13C10.5 13.1326 10.4473 13.2599 10.3535 13.3537C10.2597 13.4475 10.1324 13.5002 9.99972 13.5002C9.86704 13.5002 9.73979 13.4475 9.64597 13.3537L4.64597 8.35372C4.59948 8.30728 4.5626 8.25214 4.53744 8.19144C4.51228 8.13074 4.49933 8.06567 4.49933 7.99997C4.49933 7.93426 4.51228 7.86919 4.53744 7.8085C4.5626 7.7478 4.59948 7.69265 4.64597 7.64622Z" fill="#262626"/>
</svg>
