<svg width="16" height="16" viewBox="0 0 16 16" fill="none" xmlns="http://www.w3.org/2000/svg">
<path d="M11.354 7.64622L6.35403 2.64622C6.30757 2.59976 6.25242 2.56291 6.19173 2.53777C6.13103 2.51263 6.06598 2.49969 6.00028 2.49969C5.93458 2.49969 5.86953 2.51263 5.80883 2.53777C5.74813 2.56291 5.69298 2.59976 5.64653 2.64622C5.60007 2.69267 5.56322 2.74782 5.53808 2.80852C5.51294 2.86921 5.5 2.93427 5.5 2.99997C5.5 3.06566 5.51294 3.13072 5.53808 3.19141C5.56322 3.25211 5.60007 3.30726 5.64653 3.35372L10.2934 7.99997L5.64653 12.6462C5.55271 12.74 5.5 12.8673 5.5 13C5.5 13.1326 5.55271 13.2599 5.64653 13.3537C5.74035 13.4475 5.8676 13.5002 6.00028 13.5002C6.13296 13.5002 6.26021 13.4475 6.35403 13.3537L11.354 8.35372C11.4005 8.30728 11.4374 8.25214 11.4626 8.19144C11.4877 8.13074 11.5007 8.06567 11.5007 7.99997C11.5007 7.93426 11.4877 7.86919 11.4626 7.8085C11.4374 7.7478 11.4005 7.69265 11.354 7.64622Z" fill="#262626"/>
</svg>
