<svg width="24" height="24" viewBox="0 0 24 24" fill="none" xmlns="http://www.w3.org/2000/svg">
<g opacity="0.8">
<mask id="path-1-inside-1_521_814" fill="white">
<path d="M12 1.38281e-06C18.6274 1.09312e-06 24 5.37258 24 12C24 18.6274 18.6274 24 12 24C5.37258 24 0 18.6274 0 12C0 5.37259 5.37258 1.67251e-06 12 1.38281e-06ZM12 22.6331C17.8725 22.6331 22.6331 17.8725 22.6331 12C22.6331 6.12749 17.8725 1.36688 12 1.36688C6.12749 1.36688 1.36688 6.12749 1.36688 12C1.36688 17.8725 6.12749 22.6331 12 22.6331Z"/>
</mask>
<path d="M12 1.38281e-06C18.6274 1.09312e-06 24 5.37258 24 12C24 18.6274 18.6274 24 12 24C5.37258 24 0 18.6274 0 12C0 5.37259 5.37258 1.67251e-06 12 1.38281e-06ZM12 22.6331C17.8725 22.6331 22.6331 17.8725 22.6331 12C22.6331 6.12749 17.8725 1.36688 12 1.36688C6.12749 1.36688 1.36688 6.12749 1.36688 12C1.36688 17.8725 6.12749 22.6331 12 22.6331Z" fill="white" stroke="white" stroke-width="3" mask="url(#path-1-inside-1_521_814)"/>
<circle cx="12" cy="12" r="6.5" fill="white" stroke="white"/>
</g>
</svg>
