<svg width="422" height="120" viewBox="0 0 422 120" fill="none" xmlns="http://www.w3.org/2000/svg">
<g clip-path="url(#clip0_429_235)">
<path d="M398.83 97.4029H335.919C328.924 97.5492 322.156 94.9103 317.105 90.0662C314.586 87.7222 312.593 84.8698 311.259 81.6978C309.924 78.5257 309.277 75.1063 309.362 71.6656V41.8343C309.269 38.3838 309.911 34.9531 311.246 31.7703C312.581 28.5875 314.578 25.7256 317.105 23.375C322.156 18.5309 328.924 15.892 335.919 16.0383H398.83V35.1138H335.919C330.865 35.1138 328.333 37.3687 328.323 41.8783V71.6509C328.323 76.1605 330.855 78.4154 335.919 78.4154H398.83V97.4029ZM187.793 43.6245C187.793 37.9311 186.424 35.0845 183.687 35.0845H123.988V52.0031H183.746C186.454 52.0031 187.803 49.2102 187.793 43.6245ZM206.769 43.6245C206.946 50.3494 204.825 56.9337 200.757 62.2892C198.847 65.0337 196.29 67.2639 193.312 68.7819C190.335 70.2998 187.028 71.0585 183.687 70.9906H123.988V97.4029H104.924V16.0383H183.643C187.001 15.9744 190.322 16.7453 193.309 18.2819C196.296 19.8184 198.855 22.0726 200.757 24.8424C204.804 30.2539 206.921 36.8671 206.769 43.6245ZM97.064 72.3259C97.2219 78.7213 95.0246 84.9516 90.8902 89.8314C88.836 92.2626 86.2651 94.204 83.3652 95.514C80.4653 96.8239 77.3097 97.4693 74.1287 97.4029H3.9591V78.4154H74.1287C76.7585 78.4154 78.0734 76.3855 78.0734 72.3259C78.0734 68.276 76.7536 66.2364 74.1287 66.2364H23.0816C19.8943 66.2969 16.734 65.6415 13.8332 64.3185C10.9325 62.9955 8.36511 61.0385 6.32009 58.5915C2.09233 53.7975 -0.16569 47.5802 -0.000306066 41.1887C-0.131205 34.6814 2.18166 28.3616 6.4814 23.4778C8.51609 21.0743 11.0638 19.1582 13.9367 17.8707C16.8097 16.5831 19.9347 15.957 23.0816 16.0383H93.2659V35.1138H22.8763C20.2367 35.1138 18.9316 37.1682 18.9316 41.2767C18.9316 45.3853 20.2367 47.2928 22.8763 47.2928H74.1287C77.315 47.2244 80.4765 47.8671 83.3834 49.1742C86.2904 50.4814 88.8698 52.4202 90.9342 54.8497C95.0459 59.7283 97.2269 65.9462 97.064 72.3259Z" fill="white"/>
<path fill-rule="evenodd" clip-rule="evenodd" d="M214.908 56.7574C214.901 47.0547 218.191 37.6379 224.24 30.0541C230.288 22.4702 238.735 17.1702 248.191 15.0247C257.648 12.8793 267.553 14.0159 276.279 18.248C285.005 22.48 292.032 29.5557 296.208 38.3128L238.371 54.0575H314.304C314.177 51.4129 313.868 48.7801 313.38 46.1778C312.885 43.5074 312.189 40.8782 311.298 38.3128C306.818 25.2658 297.74 14.2988 285.765 7.46346C273.789 0.628085 259.734 -1.60745 246.23 1.175C232.726 3.95745 220.698 11.5673 212.395 22.581C204.093 33.5947 200.084 47.2579 201.12 61.0146C202.156 74.7713 208.165 87.6793 218.024 97.3238C227.882 106.968 240.914 112.689 254.682 113.415C268.45 114.142 282.011 109.824 292.828 101.27C303.645 92.7164 310.978 80.5123 313.453 66.9408H299.156C296.678 77.1039 290.563 86.0057 281.968 91.9612C273.373 97.9168 262.895 100.513 252.515 99.2584C242.136 98.0039 232.577 92.9856 225.646 85.1534C218.716 77.3212 214.896 67.2185 214.908 56.7574Z" fill="#00A198"/>
<path d="M199.921 115.51C199.916 115.395 199.936 115.281 199.979 115.175C200.022 115.068 200.087 114.972 200.17 114.893C200.246 114.815 200.337 114.752 200.438 114.709C200.539 114.666 200.647 114.644 200.757 114.644C200.982 114.644 201.198 114.734 201.358 114.893C201.438 114.975 201.501 115.071 201.544 115.177C201.587 115.282 201.608 115.396 201.607 115.51C201.609 115.622 201.588 115.733 201.545 115.836C201.502 115.94 201.438 116.033 201.358 116.111C201.279 116.191 201.186 116.254 201.083 116.297C200.979 116.34 200.868 116.361 200.757 116.361C200.647 116.364 200.537 116.343 200.436 116.3C200.335 116.257 200.244 116.193 200.17 116.111C200.088 116.035 200.022 115.942 199.979 115.838C199.936 115.734 199.916 115.622 199.921 115.51ZM195.228 115.51C195.232 115.284 195.322 115.068 195.48 114.907C195.639 114.745 195.853 114.651 196.079 114.644C196.304 114.644 196.52 114.734 196.68 114.893C196.76 114.975 196.823 115.071 196.866 115.177C196.909 115.282 196.93 115.396 196.929 115.51C196.926 115.735 196.837 115.95 196.68 116.111C196.601 116.191 196.508 116.254 196.405 116.297C196.301 116.34 196.19 116.361 196.079 116.361C195.967 116.364 195.855 116.344 195.751 116.301C195.648 116.258 195.554 116.193 195.477 116.111C195.398 116.033 195.335 115.939 195.292 115.836C195.249 115.732 195.227 115.621 195.228 115.51ZM190.55 115.51C190.554 115.284 190.644 115.068 190.802 114.907C190.961 114.745 191.175 114.651 191.401 114.644C191.626 114.647 191.841 114.736 192.002 114.893C192.082 114.975 192.145 115.071 192.188 115.177C192.231 115.282 192.252 115.396 192.251 115.51C192.248 115.735 192.159 115.95 192.002 116.111C191.843 116.271 191.626 116.361 191.401 116.361C191.289 116.364 191.177 116.344 191.073 116.301C190.97 116.258 190.876 116.193 190.799 116.111C190.72 116.033 190.657 115.939 190.614 115.836C190.571 115.732 190.549 115.621 190.55 115.51ZM187.295 116.185H186.077V111.518C186.077 109.787 185.432 108.936 184.156 108.936C183.847 108.932 183.54 108.996 183.258 109.126C182.976 109.255 182.727 109.446 182.529 109.684C182.075 110.219 181.839 110.905 181.869 111.606V116.185H180.637V104.196H181.869V109.435C182.137 108.969 182.527 108.586 182.998 108.327C183.469 108.069 184.001 107.944 184.538 107.967C186.356 107.967 187.265 109.068 187.265 111.269L187.295 116.185ZM177.66 116.111C177.295 116.288 176.892 116.373 176.487 116.361C175.094 116.361 174.39 115.583 174.39 114.013V109.141H172.997V108.085H174.39V106.089L175.607 105.708V108.085H177.66V109.141H175.607V113.793C175.571 114.209 175.668 114.625 175.886 114.981C176.008 115.103 176.155 115.197 176.317 115.255C176.48 115.313 176.653 115.335 176.824 115.319C177.124 115.326 177.419 115.233 177.66 115.055V116.111ZM168.861 111.313C168.868 111.001 168.812 110.69 168.696 110.4C168.58 110.11 168.407 109.847 168.187 109.626C167.977 109.402 167.722 109.224 167.439 109.106C167.156 108.987 166.851 108.929 166.544 108.936C166.176 108.919 165.809 108.992 165.474 109.147C165.14 109.303 164.848 109.538 164.623 109.831C164.121 110.556 163.878 111.43 163.934 112.311C163.894 113.101 164.133 113.88 164.609 114.512C164.813 114.778 165.079 114.991 165.382 115.134C165.685 115.277 166.019 115.345 166.354 115.334C166.694 115.343 167.033 115.277 167.345 115.14C167.657 115.003 167.934 114.799 168.157 114.541C168.632 113.987 168.883 113.275 168.861 112.546V111.313ZM170.079 115.554C170.079 118.488 168.671 119.956 165.855 119.956C164.948 119.971 164.049 119.775 163.23 119.383V118.136C164.026 118.609 164.93 118.872 165.855 118.899C167.864 118.899 168.861 117.813 168.861 115.656V114.761C168.587 115.258 168.179 115.667 167.684 115.945C167.189 116.222 166.627 116.356 166.06 116.331C165.6 116.353 165.141 116.266 164.721 116.078C164.301 115.889 163.931 115.604 163.641 115.245C162.982 114.415 162.653 113.37 162.717 112.311C162.655 111.132 163.008 109.969 163.714 109.024C164.04 108.627 164.453 108.311 164.921 108.1C165.389 107.889 165.899 107.788 166.412 107.806C166.904 107.778 167.395 107.888 167.828 108.124C168.26 108.36 168.618 108.712 168.861 109.141V107.997H170.079V115.554ZM159.535 116.185H158.318V111.562C158.318 109.802 157.672 108.936 156.397 108.936C156.086 108.931 155.778 108.994 155.494 109.12C155.21 109.247 154.958 109.435 154.754 109.67C154.315 110.2 154.085 110.874 154.109 111.562V116.185H152.877V108.085H154.109V109.435C154.376 108.971 154.764 108.59 155.232 108.331C155.7 108.073 156.229 107.947 156.763 107.967C157.147 107.944 157.531 108.01 157.884 108.16C158.238 108.31 158.552 108.541 158.802 108.833C159.317 109.553 159.565 110.43 159.505 111.313L159.535 116.185ZM148.419 111.416C148.459 110.778 148.266 110.147 147.877 109.64C147.693 109.434 147.467 109.27 147.214 109.161C146.96 109.052 146.686 109 146.41 109.009C146.115 109.005 145.822 109.061 145.55 109.175C145.277 109.289 145.031 109.457 144.826 109.67C144.364 110.142 144.074 110.758 144.005 111.416H148.419ZM149.68 112.502H143.946C143.913 113.285 144.18 114.052 144.694 114.644C144.944 114.897 145.244 115.094 145.575 115.223C145.906 115.352 146.261 115.41 146.615 115.392C147.539 115.391 148.432 115.064 149.138 114.468V115.642C148.309 116.203 147.321 116.481 146.322 116.434C145.822 116.462 145.322 116.376 144.86 116.183C144.397 115.99 143.985 115.694 143.653 115.319C142.958 114.437 142.613 113.329 142.685 112.208C142.642 111.099 143.019 110.014 143.741 109.171C144.063 108.784 144.466 108.473 144.923 108.263C145.38 108.052 145.878 107.946 146.381 107.953C146.838 107.929 147.294 108.01 147.715 108.187C148.137 108.365 148.513 108.636 148.815 108.98C149.428 109.803 149.734 110.816 149.68 111.841V112.502ZM140.882 109.391C140.587 109.21 140.244 109.123 139.899 109.141C139.604 109.13 139.312 109.2 139.054 109.342C138.796 109.484 138.581 109.694 138.433 109.948C138.028 110.587 137.833 111.336 137.875 112.091V116.243H136.644V108.143H137.875V109.831C138.025 109.313 138.314 108.846 138.711 108.481C139.063 108.169 139.517 107.997 139.987 107.997C140.256 107.988 140.524 108.028 140.779 108.114L140.882 109.391ZM133.74 116.17C133.37 116.347 132.962 116.433 132.552 116.419C131.159 116.419 130.47 115.642 130.47 114.072V109.2H129.003V108.143H130.47V106.148L131.687 105.766V108.143H133.74V109.2H131.687V113.851C131.644 114.268 131.742 114.686 131.966 115.04C132.083 115.163 132.228 115.258 132.388 115.316C132.548 115.375 132.72 115.396 132.889 115.378C133.193 115.38 133.491 115.288 133.74 115.113V116.17ZM120.454 114.277C120.883 114.626 121.384 114.877 121.92 115.011C122.45 115.188 123.004 115.282 123.563 115.29C125.205 115.29 126.026 114.688 126.026 113.499C126.031 113.174 125.945 112.854 125.777 112.575C125.598 112.313 125.369 112.088 125.103 111.915C124.824 111.724 124.237 111.416 123.357 110.961C122.548 110.598 121.804 110.102 121.158 109.493C120.741 109.015 120.521 108.396 120.542 107.762C120.528 107.329 120.625 106.9 120.822 106.515C121.02 106.13 121.312 105.802 121.671 105.561C122.492 105.005 123.467 104.723 124.457 104.754C125.276 104.693 126.096 104.834 126.848 105.165V106.632C126.088 106.146 125.197 105.905 124.296 105.942C123.672 105.911 123.054 106.07 122.522 106.397C122.307 106.535 122.131 106.727 122.013 106.953C121.895 107.18 121.837 107.433 121.847 107.689C121.839 107.912 121.878 108.134 121.962 108.341C122.045 108.549 122.171 108.736 122.331 108.892C122.941 109.378 123.611 109.783 124.325 110.095C125.231 110.479 126.045 111.049 126.716 111.768C127.108 112.249 127.326 112.849 127.332 113.47C127.354 113.904 127.269 114.338 127.085 114.732C126.901 115.126 126.623 115.468 126.276 115.73C125.403 116.288 124.377 116.559 123.343 116.507C122.849 116.495 122.357 116.431 121.876 116.317C121.418 116.244 120.976 116.09 120.571 115.862L120.454 114.277ZM112.608 109.391C112.314 109.21 111.971 109.123 111.626 109.141C111.332 109.135 111.042 109.206 110.784 109.348C110.527 109.49 110.311 109.697 110.159 109.948C109.762 110.59 109.568 111.337 109.602 112.091V116.243H108.37V108.143H109.602V109.831C109.756 109.311 110.05 108.844 110.453 108.481C110.798 108.167 111.248 107.995 111.714 107.997C111.983 107.988 112.251 108.028 112.506 108.114L112.608 109.391ZM104.587 116.243H103.355V114.967C103.126 115.426 102.768 115.81 102.326 116.07C101.883 116.33 101.375 116.457 100.862 116.434C98.9264 116.434 97.9293 115.289 97.9293 112.986V108.143H99.0584V112.78C99.0584 114.526 99.733 115.392 101.053 115.392C101.356 115.401 101.658 115.341 101.934 115.216C102.211 115.092 102.456 114.906 102.651 114.673C103.088 114.153 103.313 113.488 103.282 112.81V108.143H104.514L104.587 116.243ZM88.1187 112.237C88.0745 113.071 88.341 113.892 88.8666 114.541C89.1142 114.823 89.422 115.046 89.7671 115.193C90.1123 115.341 90.4861 115.409 90.861 115.392C91.2321 115.419 91.6043 115.358 91.948 115.216C92.2917 115.073 92.5974 114.852 92.8407 114.57C93.3445 113.89 93.5889 113.053 93.5299 112.208C93.5848 111.359 93.3409 110.518 92.8407 109.831C92.5981 109.547 92.293 109.324 91.9494 109.179C91.6058 109.034 91.2332 108.971 90.861 108.995C90.4828 108.98 90.106 109.05 89.7584 109.2C89.4108 109.349 89.1011 109.575 88.8519 109.86C88.3162 110.513 88.0303 111.335 88.0454 112.179L88.1187 112.237ZM86.8722 112.237C86.8024 111.072 87.198 109.927 87.9721 109.053C88.3555 108.669 88.8137 108.368 89.3182 108.169C89.8227 107.969 90.3628 107.876 90.905 107.894C91.4244 107.869 91.9432 107.955 92.4263 108.148C92.9095 108.34 93.3459 108.634 93.7059 109.009C94.4353 109.875 94.8029 110.99 94.7324 112.12C94.7749 113.257 94.3754 114.367 93.6179 115.216C93.2405 115.608 92.7834 115.915 92.2774 116.115C91.7714 116.315 91.2283 116.404 90.685 116.375C90.1604 116.396 89.6373 116.307 89.1497 116.112C88.662 115.917 88.2208 115.622 87.8548 115.245C87.1211 114.421 86.7417 113.34 86.7989 112.237H86.8722ZM73.3076 114.541C73.9798 115.047 74.7982 115.32 75.6392 115.319C76.7831 115.319 77.355 114.937 77.355 114.16C77.3613 114.004 77.3315 113.848 77.2679 113.706C77.2043 113.563 77.1087 113.437 76.9884 113.338C76.54 113.016 76.0456 112.764 75.5219 112.59C74.8748 112.376 74.2836 112.02 73.7915 111.548C73.624 111.328 73.5023 111.076 73.4336 110.808C73.365 110.54 73.3507 110.261 73.3917 109.987C73.4327 109.714 73.5282 109.451 73.6724 109.215C73.8167 108.979 74.0068 108.774 74.2315 108.613C74.8692 108.162 75.6359 107.93 76.4165 107.953C77.0563 107.941 77.6913 108.066 78.2789 108.32V109.596C77.669 109.199 76.9535 108.994 76.2258 109.009C75.8029 108.982 75.3835 109.101 75.038 109.347C74.9058 109.442 74.7983 109.568 74.7243 109.713C74.6504 109.859 74.6121 110.02 74.6127 110.183C74.6032 110.334 74.6257 110.485 74.6787 110.627C74.7318 110.769 74.8143 110.897 74.9207 111.005C75.3495 111.304 75.8186 111.541 76.3138 111.709C77.0187 111.93 77.6651 112.306 78.2055 112.81C78.4992 113.175 78.655 113.632 78.6455 114.101C78.6559 114.438 78.579 114.772 78.4223 115.07C78.2655 115.368 78.0342 115.621 77.7509 115.803C77.0798 116.25 76.2834 116.471 75.4779 116.434C74.7348 116.456 73.9982 116.29 73.3369 115.95L73.3076 114.541ZM68.7029 116.185V108.085H69.9201V116.185H68.7029ZM68.527 105.165C68.5265 105.059 68.547 104.953 68.5873 104.855C68.6276 104.757 68.6868 104.668 68.7616 104.593C68.8358 104.516 68.9248 104.456 69.0232 104.416C69.1216 104.375 69.2272 104.356 69.3335 104.358C69.4401 104.354 69.5462 104.373 69.6449 104.413C69.7435 104.454 69.8323 104.515 69.9054 104.593C69.9816 104.667 70.0417 104.756 70.0821 104.854C70.1224 104.953 70.1422 105.058 70.1401 105.165C70.1433 105.273 70.1241 105.382 70.0838 105.483C70.0434 105.584 69.9827 105.675 69.9054 105.752C69.8295 105.825 69.7398 105.882 69.6416 105.919C69.5434 105.957 69.4387 105.975 69.3335 105.972C69.2265 105.976 69.1198 105.958 69.0201 105.919C68.9203 105.88 68.8298 105.82 68.754 105.745C68.6783 105.669 68.619 105.578 68.58 105.478C68.5409 105.379 68.5228 105.272 68.527 105.165ZM60.5202 108.099L56.7661 117.549C56.1062 119.193 55.1823 120.014 54.0091 120.014C53.7426 120.016 53.4769 119.986 53.2173 119.926V118.752C53.4524 118.838 53.7004 118.882 53.9505 118.884C54.2893 118.868 54.6141 118.744 54.8777 118.53C55.1413 118.316 55.3302 118.024 55.4169 117.696L56.0768 116.126L52.9239 108.041H54.2878L56.5314 114.35L56.7074 114.923L56.8687 114.365L59.215 108.026L60.5202 108.099ZM51.1642 116.126C50.7989 116.302 50.3965 116.388 49.991 116.375C48.5246 116.375 47.894 115.598 47.894 114.028V109.156H46.5009V108.099H47.894V106.104L49.1112 105.722V108.099H51.1642V109.156H49.1112V113.807C49.0712 114.225 49.1747 114.645 49.4045 114.996C49.5224 115.119 49.667 115.214 49.8272 115.272C49.9874 115.331 50.1588 115.352 50.3283 115.334C50.6286 115.341 50.9227 115.248 51.1642 115.069V116.126ZM42.3655 116.199V108.099H43.5827V116.199H42.3655ZM42.1896 105.179C42.1891 105.073 42.2096 104.968 42.2499 104.87C42.2902 104.772 42.3494 104.682 42.4242 104.607C42.4956 104.531 42.5821 104.471 42.678 104.431C42.774 104.391 42.8773 104.371 42.9814 104.372C43.0901 104.369 43.1982 104.388 43.2991 104.429C43.4001 104.469 43.4916 104.53 43.568 104.607C43.6442 104.681 43.7043 104.771 43.7446 104.869C43.785 104.967 43.8047 105.073 43.8027 105.179C43.8059 105.288 43.7867 105.396 43.7464 105.497C43.706 105.598 43.6453 105.69 43.568 105.766C43.4084 105.913 43.1981 105.992 42.9814 105.986C42.774 105.989 42.574 105.91 42.4242 105.766C42.3358 105.692 42.2641 105.6 42.2135 105.497C42.163 105.393 42.1348 105.28 42.1309 105.165L42.1896 105.179ZM37.2476 116.199V104.211H38.4648V116.199H37.2476ZM30.3406 112.355C29.8211 112.379 29.3163 112.535 28.8742 112.81C28.7181 112.958 28.5965 113.138 28.5179 113.339C28.4393 113.539 28.4058 113.754 28.4196 113.969C28.4126 114.158 28.4486 114.346 28.5248 114.518C28.601 114.691 28.7155 114.845 28.8595 114.967C29.1821 115.228 29.5885 115.364 30.0034 115.348C30.3072 115.355 30.6088 115.295 30.8873 115.174C31.1658 115.052 31.4146 114.871 31.6164 114.644C32.0491 114.173 32.2807 113.552 32.2617 112.912V112.091L30.3406 112.355ZM28.009 108.672C28.826 108.16 29.773 107.896 30.7366 107.909C32.6136 107.909 33.5522 108.887 33.5522 110.843V116.141H32.3204V114.864C32.0907 115.32 31.7352 115.701 31.296 115.961C30.8567 116.221 30.3521 116.349 29.8421 116.331C29.1543 116.369 28.478 116.143 27.9503 115.7C27.7163 115.485 27.5321 115.221 27.4105 114.927C27.2889 114.633 27.2329 114.316 27.2464 113.998C27.2464 112.531 28.141 111.621 29.9154 111.372L32.3643 111.02C32.3643 109.552 31.8071 108.907 30.6779 108.907C29.7067 108.901 28.7694 109.263 28.053 109.919L28.009 108.672ZM23.9469 116.199H22.7151V114.923C22.4859 115.382 22.1284 115.765 21.6859 116.026C21.2434 116.286 20.735 116.413 20.2222 116.39C18.2864 116.39 17.2893 115.245 17.2893 112.942V108.099H18.4038V112.736C18.4038 114.482 19.0637 115.348 20.3835 115.348C20.6869 115.357 20.9883 115.297 21.2652 115.172C21.542 115.048 21.787 114.862 21.9819 114.629C22.4188 114.109 22.644 113.444 22.6125 112.766V108.099H23.8443L23.9469 116.199ZM4.76577 110.55C4.71855 111.772 5.10272 112.972 5.85095 113.94C6.20291 114.373 6.65146 114.719 7.16075 114.948C7.67003 115.177 8.2259 115.284 8.78385 115.26C9.34648 115.292 9.9091 115.197 10.4297 114.981C10.9502 114.765 11.4153 114.434 11.7901 114.013C12.5661 113.038 12.9528 111.809 12.8752 110.565C12.9519 109.314 12.583 108.077 11.8341 107.072C11.474 106.652 11.0225 106.319 10.514 106.101C10.0056 105.882 9.4539 105.783 8.90117 105.81C8.34295 105.795 7.78853 105.907 7.28024 106.138C6.77194 106.37 6.32322 106.714 5.96827 107.146C5.14986 108.084 4.70149 109.29 4.70713 110.535L4.76577 110.55ZM3.46064 110.667C3.37291 109.067 3.89722 107.493 4.92708 106.265C5.43813 105.718 6.06241 105.288 6.75639 105.007C7.45036 104.726 8.19733 104.599 8.94516 104.637C9.65226 104.609 10.3566 104.739 11.0081 105.015C11.6595 105.291 12.242 105.708 12.7139 106.236C13.7122 107.366 14.2373 108.837 14.1804 110.344C14.1931 111.352 13.9984 112.351 13.6085 113.279C13.257 114.104 12.6958 114.822 11.9807 115.363L15.1629 117.637H12.8312L10.6609 116.008C10.0548 116.205 9.42114 116.305 8.78385 116.302C8.06573 116.331 7.34992 116.203 6.68635 115.927C6.02278 115.65 5.42743 115.233 4.94176 114.703C3.93107 113.598 3.38024 112.15 3.40199 110.653L3.46064 110.667Z" fill="white"/>
<path d="M412.776 25.8992V16.3174H415.709L417.425 22.8471L419.126 16.3174H422.059V25.8992H420.211V18.357L418.319 25.8992H416.457L414.58 18.357V25.8992H412.776ZM406.793 25.8992V17.9315H403.963V16.3174H411.544V17.9315H408.729V25.8992H406.793Z" fill="white"/>
</g>
<defs>
<clipPath id="clip0_429_235">
<rect width="422" height="120" fill="white"/>
</clipPath>
</defs>
</svg>
