<svg width="16" height="16" viewBox="0 0 16 16" fill="none" xmlns="http://www.w3.org/2000/svg">
<path d="M10.218 9.35436C10.3045 9.29677 10.4041 9.26168 10.5076 9.25226C10.6112 9.24285 10.7154 9.25942 10.8109 9.30046L14.4953 10.9512C14.6195 11.0043 14.7231 11.0962 14.7907 11.2131C14.8583 11.3299 14.8862 11.4656 14.8703 11.5997C14.7489 12.5067 14.3023 13.3389 13.6133 13.9413C12.9244 14.5437 12.0402 14.8754 11.125 14.8747C8.30708 14.8747 5.60457 13.7553 3.61199 11.7627C1.61942 9.77011 0.500001 7.0676 0.500001 4.24968C0.499301 3.33452 0.830999 2.45026 1.43341 1.76134C2.03582 1.07242 2.86793 0.625741 3.775 0.504365C3.90909 0.488435 4.04473 0.51636 4.16162 0.58396C4.27851 0.65156 4.37037 0.7552 4.42344 0.879365L6.07422 4.56686C6.11478 4.66157 6.1313 4.76484 6.1223 4.86748C6.1133 4.97012 6.07907 5.06894 6.02266 5.15515L4.35313 7.1403C4.2939 7.22966 4.25888 7.33286 4.25149 7.43981C4.24409 7.54676 4.26458 7.6538 4.31094 7.75046C4.95703 9.07311 6.32422 10.4239 7.65078 11.0637C7.74795 11.1099 7.85548 11.1299 7.96276 11.1218C8.07003 11.1138 8.17334 11.0778 8.2625 11.0176L10.218 9.35436Z" stroke="#A29D97" stroke-linecap="round" stroke-linejoin="round"/>
</svg>
