<svg width="25" height="25" viewBox="0 0 25 25" fill="none" xmlns="http://www.w3.org/2000/svg">
<path d="M21.875 4.6875H3.125C2.9178 4.6875 2.71909 4.76981 2.57257 4.91632C2.42606 5.06284 2.34375 5.26155 2.34375 5.46875V18.75C2.34375 19.1644 2.50837 19.5618 2.8014 19.8549C3.09442 20.1479 3.49185 20.3125 3.90625 20.3125H21.0938C21.5082 20.3125 21.9056 20.1479 22.1986 19.8549C22.4916 19.5618 22.6562 19.1644 22.6562 18.75V5.46875C22.6562 5.26155 22.5739 5.06284 22.4274 4.91632C22.2809 4.76981 22.0822 4.6875 21.875 4.6875ZM12.5 13.0029L5.13379 6.25H19.8662L12.5 13.0029ZM9.63965 12.5L3.90625 17.7549V7.24512L9.63965 12.5ZM10.7959 13.5596L11.9678 14.6387C12.1119 14.771 12.3004 14.8444 12.4961 14.8444C12.6917 14.8444 12.8803 14.771 13.0244 14.6387L14.1963 13.5596L19.8604 18.75H5.13379L10.7959 13.5596ZM15.3604 12.5L21.0938 7.24414V17.7559L15.3604 12.5Z" fill="#C59B5F"/>
</svg>
