<svg width="20" height="20" viewBox="0 0 20 20" fill="none" xmlns="http://www.w3.org/2000/svg">
<path d="M9.375 9.375H16.875C17.0408 9.375 17.1997 9.44085 17.3169 9.55806C17.4342 9.67527 17.5 9.83424 17.5 10C17.5 10.1658 17.4342 10.3247 17.3169 10.4419C17.1997 10.5592 17.0408 10.625 16.875 10.625H9.375C9.20924 10.625 9.05027 10.5592 8.93306 10.4419C8.81585 10.3247 8.75 10.1658 8.75 10C8.75 9.83424 8.81585 9.67527 8.93306 9.55806C9.05027 9.44085 9.20924 9.375 9.375 9.375ZM15 4.375C15 4.54076 15.0658 4.69973 15.1831 4.81694C15.3003 4.93415 15.4592 5 15.625 5H16.875C17.0408 5 17.1997 4.93415 17.3169 4.81694C17.4342 4.69973 17.5 4.54076 17.5 4.375C17.5 4.20924 17.4342 4.05027 17.3169 3.93306C17.1997 3.81585 17.0408 3.75 16.875 3.75H15.625C15.4592 3.75 15.3003 3.81585 15.1831 3.93306C15.0658 4.05027 15 4.20924 15 4.375ZM12.5 2.5L12.5 3.75H3.125C2.95924 3.75 2.80027 3.81585 2.68306 3.93306C2.56585 4.05027 2.5 4.20924 2.5 4.375C2.5 4.54076 2.56585 4.69973 2.68306 4.81694C2.80027 4.93415 2.95924 5 3.125 5H12.5V6.25C12.5 6.41576 12.5658 6.57473 12.6831 6.69194C12.8003 6.80915 12.9592 6.875 13.125 6.875C13.2908 6.875 13.4497 6.80915 13.5669 6.69194C13.6842 6.57473 13.75 6.41576 13.75 6.25L13.75 2.5C13.75 2.33424 13.6842 2.17527 13.5669 2.05806C13.4497 1.94085 13.2908 1.875 13.125 1.875C12.9592 1.875 12.8003 1.94085 12.6831 2.05806C12.5658 2.17527 12.5 2.33424 12.5 2.5ZM12.5 15.625C12.5 15.7908 12.5658 15.9497 12.6831 16.0669C12.8003 16.1842 12.9592 16.25 13.125 16.25H16.875C17.0408 16.25 17.1997 16.1842 17.3169 16.0669C17.4342 15.9497 17.5 15.7908 17.5 15.625C17.5 15.4592 17.4342 15.3003 17.3169 15.1831C17.1997 15.0658 17.0408 15 16.875 15H13.125C12.9592 15 12.8003 15.0658 12.6831 15.1831C12.5658 15.3003 12.5 15.4592 12.5 15.625ZM10 13.75V15H3.125C2.95924 15 2.80027 15.0658 2.68306 15.1831C2.56585 15.3003 2.5 15.4592 2.5 15.625C2.5 15.7908 2.56585 15.9497 2.68306 16.0669C2.80027 16.1842 2.95924 16.25 3.125 16.25H10V17.5C10 17.6658 10.0658 17.8247 10.1831 17.9419C10.3003 18.0592 10.4592 18.125 10.625 18.125C10.7908 18.125 10.9497 18.0592 11.0669 17.9419C11.1842 17.8247 11.25 17.6658 11.25 17.5V13.75C11.25 13.5842 11.1842 13.4253 11.0669 13.3081C10.9497 13.1908 10.7908 13.125 10.625 13.125C10.4592 13.125 10.3003 13.1908 10.1831 13.3081C10.0658 13.4253 10 13.5842 10 13.75ZM6.25 8.125V9.375H3.125C2.95924 9.375 2.80027 9.44085 2.68306 9.55806C2.56585 9.67527 2.5 9.83424 2.5 10C2.5 10.1658 2.56585 10.3247 2.68306 10.4419C2.80027 10.5592 2.95924 10.625 3.125 10.625H6.25V11.875C6.25 12.0408 6.31585 12.1997 6.43306 12.3169C6.55027 12.4342 6.70924 12.5 6.875 12.5C7.04076 12.5 7.19973 12.4342 7.31694 12.3169C7.43415 12.1997 7.5 12.0408 7.5 11.875L7.5 8.125C7.5 7.95924 7.43415 7.80027 7.31694 7.68306C7.19973 7.56585 7.04076 7.5 6.875 7.5C6.70924 7.5 6.55027 7.56585 6.43306 7.68306C6.31585 7.80027 6.25 7.95924 6.25 8.125Z" fill="#C59B5F"/>
</svg>
