<svg width="25" height="25" viewBox="0 0 25 25" fill="none" xmlns="http://www.w3.org/2000/svg">
<path d="M17.3828 3.90625C15.3662 3.90625 13.6006 4.77344 12.5 6.23926C11.3994 4.77344 9.63379 3.90625 7.61719 3.90625C6.01194 3.90806 4.47296 4.54654 3.33788 5.68163C2.20279 6.81671 1.56431 8.35569 1.5625 9.96094C1.5625 16.7969 11.6982 22.3301 12.1299 22.5586C12.2436 22.6198 12.3708 22.6518 12.5 22.6518C12.6292 22.6518 12.7563 22.6198 12.8701 22.5586C13.3018 22.3301 23.4375 16.7969 23.4375 9.96094C23.4357 8.35569 22.7972 6.81671 21.6621 5.68163C20.527 4.54654 18.9881 3.90806 17.3828 3.90625ZM12.5 20.9766C10.7168 19.9375 3.125 15.2041 3.125 9.96094C3.12655 8.77001 3.60033 7.62831 4.44244 6.78619C5.28456 5.94408 6.42626 5.4703 7.61719 5.46875C9.5166 5.46875 11.1113 6.48047 11.7773 8.10547C11.8362 8.24876 11.9363 8.37132 12.065 8.45757C12.1937 8.54382 12.3451 8.58987 12.5 8.58987C12.6549 8.58987 12.8063 8.54382 12.935 8.45757C13.0637 8.37132 13.1638 8.24876 13.2227 8.10547C13.8887 6.47754 15.4834 5.46875 17.3828 5.46875C18.5737 5.4703 19.7154 5.94408 20.5576 6.78619C21.3997 7.62831 21.8734 8.77001 21.875 9.96094C21.875 15.1963 14.2812 19.9365 12.5 20.9766Z" fill="white"/>
</svg>
