<svg width="24" height="23" viewBox="0 0 24 23" fill="none" xmlns="http://www.w3.org/2000/svg">
<path d="M5.42286 22.7772V7.40857H0.301849V22.7772H5.4234H5.42286ZM2.86343 5.3106C4.64886 5.3106 5.76041 4.13047 5.76041 2.65563C5.72699 1.1472 4.64886 0 2.89738 0C1.1447 0 0 1.1472 0 2.6555C0 4.13033 1.11115 5.31047 2.82987 5.31047H2.86303L2.86343 5.3106ZM8.25742 22.7772H13.378V14.1956C13.378 13.7369 13.4114 13.277 13.5467 12.9493C13.9168 12.0312 14.7593 11.0809 16.1743 11.0809C18.0269 11.0809 18.7684 12.4901 18.7684 14.5563V22.7772H23.8889V13.9653C23.8889 9.24491 21.3629 7.04826 17.9937 7.04826C15.2315 7.04826 14.0184 8.58831 13.3443 9.63722H13.3784V7.40911H8.25768C8.32452 8.85087 8.25728 22.7778 8.25728 22.7778L8.25742 22.7772Z" fill="#A29D97"/>
</svg>
