<svg width="26" height="26" viewBox="0 0 26 26" fill="none" xmlns="http://www.w3.org/2000/svg">
<path d="M21.4854 6.06245C21.4854 5.19835 20.785 4.50063 19.9242 4.50063C19.0633 4.50063 18.3623 5.19835 18.3623 6.06245C18.3623 6.92337 19.0633 7.62109 19.9242 7.62109C20.785 7.62109 21.4854 6.92337 21.4854 6.06245Z" fill="#A29D97"/>
<path d="M23.5804 18.2525C23.5226 19.5201 23.3105 20.2088 23.1345 20.6662C22.8981 21.2727 22.6161 21.7064 22.1586 22.1612C21.7063 22.6161 21.2727 22.8975 20.6662 23.1313C20.2087 23.31 19.5174 23.5226 18.2499 23.583C16.8795 23.6434 16.4734 23.6563 12.9984 23.6563C9.52649 23.6563 9.11721 23.6434 7.74683 23.583C6.47928 23.5226 5.7912 23.31 5.33373 23.1313C4.72405 22.8975 4.29361 22.6161 3.83875 22.1612C3.38065 21.7064 3.09863 21.2727 2.86541 20.6662C2.68934 20.2088 2.47415 19.5201 2.41951 18.2525C2.35272 16.8821 2.34048 16.4696 2.34048 13.0016C2.34048 9.52648 2.35272 9.1172 2.41951 7.74681C2.47415 6.47926 2.68934 5.79118 2.86541 5.32985C3.09863 4.72402 3.38065 4.29291 3.83875 3.83804C4.29361 3.38385 4.72405 3.10177 5.33373 2.86538C5.7912 2.68613 6.47928 2.47667 7.74683 2.41629C9.11721 2.35587 9.52649 2.34045 12.9984 2.34045C16.4734 2.34045 16.8795 2.35587 18.2499 2.41629C19.5174 2.47667 20.2087 2.68613 20.6662 2.86538C21.2727 3.10177 21.7063 3.38385 22.1586 3.83804C22.6161 4.29291 22.8981 4.72402 23.1345 5.32985C23.3105 5.79118 23.5226 6.47926 23.5804 7.74681C23.644 9.1172 23.6594 9.52648 23.6594 13.0016C23.6594 16.4696 23.644 16.8821 23.5804 18.2525ZM25.9209 7.64018C25.8573 6.25501 25.6388 5.30865 25.3144 4.4844C24.9842 3.62926 24.5415 2.90455 23.8168 2.17985C23.0954 1.45837 22.3707 1.0157 21.5155 0.681631C20.688 0.36038 19.7449 0.139355 18.3591 0.0789795C16.9733 0.012146 16.5306 -4.57764e-05 12.9984 -4.57764e-05C9.46929 -4.57764e-05 9.02344 0.012146 7.63764 0.0789795C6.25502 0.139355 5.31253 0.36038 4.48119 0.681631C3.62929 1.0157 2.90458 1.45837 2.18311 2.17985C1.45841 2.90455 1.01574 3.62926 0.682298 4.4844C0.361049 5.30865 0.142627 6.25501 0.0757948 7.64018C0.0154192 9.02599 0 9.46929 0 13.0016C0 16.5307 0.0154192 16.9733 0.0757948 18.3591C0.142627 19.7417 0.361049 20.6874 0.682298 21.5156C1.01574 22.3675 1.45841 23.0954 2.18311 23.8169C2.90458 24.5384 3.62929 24.9843 4.48119 25.3177C5.31253 25.6389 6.25502 25.8574 7.63764 25.921C9.02344 25.9846 9.46929 26 12.9984 26C16.5306 26 16.9733 25.9846 18.3591 25.921C19.7449 25.8574 20.688 25.6389 21.5155 25.3177C22.3707 24.9843 23.0954 24.5384 23.8168 23.8169C24.5415 23.0954 24.9842 22.3675 25.3144 21.5156C25.6388 20.6874 25.8573 19.7417 25.9209 18.3591C25.9845 16.9733 25.9999 16.5307 25.9999 13.0016C25.9999 9.46929 25.9845 9.02599 25.9209 7.64018Z" fill="#A29D97"/>
<path d="M12.9985 17.3311C10.6066 17.3311 8.66568 15.3934 8.66568 13.0015C8.66568 10.6057 10.6066 8.66548 12.9985 8.66548C15.391 8.66548 17.3345 10.6057 17.3345 13.0015C17.3345 15.3934 15.391 17.3311 12.9985 17.3311ZM12.9985 6.32176C9.31136 6.32176 6.3252 9.31434 6.3252 13.0015C6.3252 16.6854 9.31136 19.6748 12.9985 19.6748C16.6856 19.6748 19.675 16.6854 19.675 13.0015C19.675 9.31434 16.6856 6.32176 12.9985 6.32176Z" fill="#A29D97"/>
</svg>
