<svg width="15" height="15" viewBox="0 0 15 15" fill="none" xmlns="http://www.w3.org/2000/svg">
<path d="M12.3955 3.49763C12.3955 2.99911 11.9915 2.59658 11.4948 2.59658C10.9981 2.59658 10.5938 2.99911 10.5938 3.49763C10.5938 3.99432 10.9981 4.39685 11.4948 4.39685C11.9915 4.39685 12.3955 3.99432 12.3955 3.49763Z" fill="#2A2928"/>
<path d="M13.6041 10.5303C13.5707 11.2616 13.4484 11.6589 13.3468 11.9228C13.2104 12.2727 13.0477 12.5229 12.7838 12.7853C12.5229 13.0478 12.2727 13.2101 11.9228 13.345C11.6589 13.4481 11.2601 13.5707 10.5288 13.6056C9.73817 13.6404 9.50391 13.6479 7.49905 13.6479C5.49605 13.6479 5.25992 13.6404 4.46932 13.6056C3.73804 13.5707 3.34107 13.4481 3.07715 13.345C2.72541 13.2101 2.47708 13.0478 2.21466 12.7853C1.95037 12.5229 1.78767 12.2727 1.65312 11.9228C1.55154 11.6589 1.42739 11.2616 1.39587 10.5303C1.35734 9.73966 1.35028 9.5017 1.35028 7.50092C1.35028 5.49605 1.35734 5.25992 1.39587 4.46932C1.42739 3.73803 1.55154 3.34106 1.65312 3.07491C1.78767 2.7254 1.95037 2.47668 2.21466 2.21425C2.47708 1.95222 2.72541 1.78948 3.07715 1.6531C3.34107 1.54969 3.73804 1.42885 4.46932 1.39402C5.25992 1.35916 5.49605 1.35026 7.49905 1.35026C9.50391 1.35026 9.73817 1.35916 10.5288 1.39402C11.2601 1.42885 11.6589 1.54969 11.9228 1.6531C12.2727 1.78948 12.5229 1.95222 12.7838 2.21425C13.0477 2.47668 13.2104 2.7254 13.3468 3.07491C13.4484 3.34106 13.5707 3.73803 13.6041 4.46932C13.6408 5.25992 13.6496 5.49605 13.6496 7.50092C13.6496 9.5017 13.6408 9.73966 13.6041 10.5303ZM14.9544 4.4078C14.9177 3.60866 14.7916 3.06268 14.6045 2.58715C14.414 2.0938 14.1586 1.6757 13.7405 1.25761C13.3242 0.84137 12.9061 0.585979 12.4128 0.393249C11.9354 0.207912 11.3913 0.0803976 10.5918 0.0455647C9.79227 0.0070076 9.5369 -2.67029e-05 7.49905 -2.67029e-05C5.46305 -2.67029e-05 5.20583 0.0070076 4.40633 0.0455647C3.60867 0.0803976 3.06492 0.207912 2.5853 0.393249C2.09382 0.585979 1.67572 0.84137 1.25949 1.25761C0.841391 1.6757 0.586002 2.0938 0.393633 2.58715C0.208298 3.06268 0.0822849 3.60866 0.0437278 4.4078C0.00889566 5.2073 0 5.46305 0 7.50092C0 9.53692 0.00889566 9.79229 0.0437278 10.5918C0.0822849 11.3895 0.208298 11.935 0.393633 12.4128C0.586002 12.9043 0.841391 13.3243 1.25949 13.7405C1.67572 14.1567 2.09382 14.414 2.5853 14.6064C3.06492 14.7917 3.60867 14.9177 4.40633 14.9544C5.20583 14.9911 5.46305 15 7.49905 15C9.5369 15 9.79227 14.9911 10.5918 14.9544C11.3913 14.9177 11.9354 14.7917 12.4128 14.6064C12.9061 14.414 13.3242 14.1567 13.7405 13.7405C14.1586 13.3243 14.414 12.9043 14.6045 12.4128C14.7916 11.935 14.9177 11.3895 14.9544 10.5918C14.9911 9.79229 15 9.53692 15 7.50092C15 5.46305 14.9911 5.2073 14.9544 4.4078Z" fill="#2A2928"/>
<path d="M7.49937 9.99868C6.11943 9.99868 4.99969 8.88077 4.99969 7.50082C4.99969 6.11865 6.11943 4.9993 7.49937 4.9993C8.8797 4.9993 10.0009 6.11865 10.0009 7.50082C10.0009 8.88077 8.8797 9.99868 7.49937 9.99868ZM7.49937 3.64715C5.3722 3.64715 3.64941 5.37364 3.64941 7.50082C3.64941 9.62617 5.3722 11.3508 7.49937 11.3508C9.62655 11.3508 11.3512 9.62617 11.3512 7.50082C11.3512 5.37364 9.62655 3.64715 7.49937 3.64715Z" fill="#2A2928"/>
</svg>
