<svg width="50" height="30" viewBox="0 0 50 30" fill="none" xmlns="http://www.w3.org/2000/svg">
<rect x="-0.5" y="0.5" width="49" height="29" rx="14.5" transform="matrix(-1 0 0 1 49 0)" stroke="white" stroke-opacity="0.3"/>
<path d="M17.6828 15.4422L23.3078 21.0672C23.4251 21.1844 23.5841 21.2503 23.75 21.2503C23.9159 21.2503 24.0749 21.1844 24.1922 21.0672C24.3095 20.9499 24.3753 20.7908 24.3753 20.625C24.3753 20.4591 24.3095 20.3001 24.1922 20.1828L19.6336 15.625H31.875C32.0408 15.625 32.1997 15.5591 32.3169 15.4419C32.4342 15.3247 32.5 15.1657 32.5 15C32.5 14.8342 32.4342 14.6753 32.3169 14.558C32.1997 14.4408 32.0408 14.375 31.875 14.375H19.6336L24.1922 9.81717C24.3095 9.69989 24.3753 9.54083 24.3753 9.37498C24.3753 9.20913 24.3095 9.05007 24.1922 8.93279C24.0749 8.81552 23.9159 8.74963 23.75 8.74963C23.5841 8.74963 23.4251 8.81552 23.3078 8.93279L17.6828 14.5578C17.6247 14.6158 17.5786 14.6848 17.5471 14.7606C17.5157 14.8365 17.4995 14.9178 17.4995 15C17.4995 15.0821 17.5157 15.1634 17.5471 15.2393C17.5786 15.3152 17.6247 15.3841 17.6828 15.4422Z" fill="#D8D8D8"/>
</svg>
