<svg width="25" height="25" viewBox="0 0 25 25" fill="none" xmlns="http://www.w3.org/2000/svg">
<path d="M8.5973 19.4442V9.83873H5.39666V19.4442H8.59763H8.5973ZM6.99765 8.5275C8.11354 8.5275 8.80826 7.78992 8.80826 6.86814C8.78737 5.92537 8.11354 5.20837 7.01887 5.20837C5.92345 5.20837 5.20801 5.92537 5.20801 6.86806C5.20801 7.78983 5.90248 8.52742 6.97668 8.52742H6.9974L6.99765 8.5275ZM10.3689 19.4442H13.5693V14.0806C13.5693 13.7939 13.5902 13.5065 13.6747 13.3017C13.906 12.7279 14.4326 12.1339 15.317 12.1339C16.4748 12.1339 16.9383 13.0147 16.9383 14.3061V19.4442H20.1386V13.9367C20.1386 10.9864 18.5598 9.61354 16.4541 9.61354C14.7277 9.61354 13.9695 10.5761 13.5482 11.2316H13.5695V9.83906H10.3691C10.4108 10.7402 10.3688 19.4445 10.3688 19.4445L10.3689 19.4442Z" fill="#2A2928"/>
</svg>
