<svg width="809" height="230" viewBox="0 0 809 230" fill="none" xmlns="http://www.w3.org/2000/svg">
<g clip-path="url(#clip0_611_4818)">
<path d="M764.579 186.688H643.975C630.564 186.969 617.591 181.911 607.906 172.626C603.078 168.134 599.258 162.667 596.699 156.587C594.14 150.507 592.901 143.953 593.063 137.359V80.1819C592.885 73.5684 594.117 66.9929 596.676 60.8926C599.235 54.7922 603.064 49.307 607.906 44.8017C617.591 35.5171 630.564 30.4592 643.975 30.7395H764.579V67.301H643.975C634.285 67.301 629.431 71.6228 629.413 80.2663V137.33C629.413 145.974 634.267 150.296 643.975 150.296H764.579V186.688ZM360.008 83.6131C360.008 72.7009 357.384 67.2448 352.137 67.2448H237.69V99.6721H352.249C357.441 99.6721 360.027 94.319 360.008 83.6131ZM396.386 83.6131C396.726 96.5026 392.66 109.122 384.86 119.387C381.2 124.647 376.298 128.922 370.589 131.831C364.881 134.741 358.542 136.195 352.137 136.065H237.69V186.688H201.143V30.7395H352.052C358.49 30.6171 364.857 32.0947 370.582 35.0398C376.308 37.9849 381.214 42.3054 384.86 47.6141C392.619 57.9861 396.677 70.6614 396.386 83.6131ZM186.075 138.624C186.378 150.882 182.165 162.823 174.239 172.176C170.301 176.836 165.373 180.557 159.814 183.068C154.254 185.579 148.205 186.816 142.107 186.688H7.58716V150.296H142.107C147.148 150.296 149.669 146.405 149.669 138.624C149.669 130.862 147.139 126.953 142.107 126.953H44.2462C38.1359 127.069 32.0774 125.812 26.5165 123.277C20.9555 120.741 16.0337 116.99 12.1133 112.3C4.00844 103.111 -0.32032 91.1948 -0.00326882 78.9445C-0.254209 66.4722 4.1797 54.3592 12.4226 44.9985C16.3232 40.3919 21.2072 36.7194 26.7148 34.2516C32.2225 31.7839 38.2134 30.5837 44.2462 30.7395H178.794V67.301H43.8526C38.7923 67.301 36.2903 71.2385 36.2903 79.1133C36.2903 86.988 38.7923 90.6441 43.8526 90.6441H142.107C148.215 90.5129 154.276 91.7447 159.848 94.2501C165.421 96.7555 170.366 100.472 174.324 105.128C182.206 114.479 186.387 126.396 186.075 138.624Z" fill="white"/>
<path fill-rule="evenodd" clip-rule="evenodd" d="M411.992 108.785C411.978 90.1876 418.287 72.1389 429.882 57.6031C441.477 43.0674 457.669 32.909 475.798 28.7969C493.928 24.6848 512.916 26.8634 529.644 34.9747C546.372 43.0861 559.845 56.6479 567.849 73.4324L456.973 103.61H602.54C602.296 98.5408 601.705 93.4947 600.769 88.507C599.82 83.3887 598.486 78.3494 596.777 73.4324C588.188 48.4256 570.787 27.4056 547.829 14.3044C524.87 1.20331 497.927 -3.08146 472.039 2.25156C446.151 7.58459 423.092 22.1701 407.175 43.2798C391.259 64.3894 383.575 90.5771 385.56 116.944C387.546 143.311 399.066 168.051 417.965 186.537C436.864 205.022 461.847 215.986 488.241 217.379C514.636 218.771 540.633 210.495 561.37 194.101C582.107 177.706 596.163 154.315 600.91 128.303H573.5C568.751 147.782 557.028 164.844 540.551 176.259C524.074 187.673 503.986 192.649 484.088 190.245C464.191 187.84 445.865 178.222 432.578 163.21C419.292 148.198 411.968 128.835 411.992 108.785Z" fill="#C59B5F"/>
<path d="M383.26 221.394C383.252 221.174 383.29 220.956 383.372 220.752C383.454 220.548 383.579 220.364 383.738 220.213C383.884 220.062 384.059 219.942 384.252 219.86C384.445 219.778 384.653 219.735 384.863 219.735C385.295 219.735 385.71 219.907 386.015 220.213C386.169 220.368 386.29 220.553 386.372 220.756C386.454 220.958 386.495 221.175 386.493 221.394C386.496 221.609 386.456 221.822 386.373 222.02C386.291 222.218 386.169 222.398 386.015 222.547C385.865 222.7 385.686 222.821 385.488 222.903C385.29 222.985 385.077 223.027 384.863 223.025C384.652 223.031 384.442 222.992 384.248 222.909C384.054 222.827 383.88 222.703 383.738 222.547C383.58 222.401 383.455 222.222 383.373 222.023C383.29 221.824 383.252 221.609 383.26 221.394ZM374.264 221.394C374.271 220.961 374.444 220.547 374.748 220.238C375.051 219.929 375.462 219.749 375.895 219.735C376.327 219.735 376.742 219.907 377.047 220.213C377.201 220.368 377.322 220.553 377.404 220.756C377.486 220.958 377.527 221.175 377.525 221.394C377.519 221.825 377.348 222.238 377.047 222.547C376.897 222.7 376.718 222.821 376.52 222.903C376.322 222.985 376.109 223.027 375.895 223.025C375.68 223.032 375.466 222.993 375.267 222.91C375.068 222.828 374.889 222.704 374.742 222.547C374.589 222.397 374.468 222.217 374.386 222.019C374.304 221.821 374.263 221.608 374.264 221.394ZM365.296 221.394C365.303 220.961 365.476 220.547 365.78 220.238C366.083 219.929 366.494 219.749 366.927 219.735C367.358 219.741 367.77 219.912 368.079 220.213C368.233 220.368 368.354 220.553 368.436 220.756C368.518 220.958 368.559 221.175 368.557 221.394C368.551 221.825 368.38 222.238 368.079 222.547C367.774 222.853 367.359 223.025 366.927 223.025C366.712 223.032 366.498 222.993 366.299 222.91C366.1 222.828 365.921 222.704 365.774 222.547C365.621 222.397 365.5 222.217 365.418 222.019C365.336 221.821 365.295 221.608 365.296 221.394ZM359.055 222.688H356.722V213.744C356.722 210.426 355.485 208.794 353.039 208.794C352.445 208.786 351.857 208.911 351.317 209.159C350.777 209.407 350.299 209.772 349.919 210.229C349.049 211.254 348.597 212.569 348.654 213.913V222.688H346.292V199.71H348.654V209.751C349.167 208.858 349.916 208.124 350.818 207.628C351.721 207.132 352.742 206.893 353.77 206.938C357.256 206.938 358.999 209.047 358.999 213.266L359.055 222.688ZM340.585 222.547C339.885 222.885 339.113 223.049 338.336 223.025C335.665 223.025 334.316 221.535 334.316 218.525V209.188H331.645V207.163H334.316V203.338L336.649 202.607V207.163H340.585V209.188H336.649V218.103C336.579 218.9 336.767 219.699 337.184 220.381C337.418 220.615 337.7 220.794 338.011 220.906C338.322 221.018 338.654 221.059 338.983 221.028C339.558 221.043 340.122 220.865 340.585 220.522V222.547ZM323.718 213.35C323.731 212.752 323.623 212.157 323.401 211.601C323.179 211.045 322.847 210.54 322.424 210.116C322.022 209.687 321.533 209.347 320.991 209.12C320.448 208.892 319.864 208.781 319.276 208.794C318.569 208.762 317.865 208.901 317.224 209.2C316.583 209.499 316.023 209.948 315.593 210.51C314.63 211.9 314.164 213.575 314.272 215.263C314.195 216.777 314.653 218.27 315.565 219.481C315.957 219.991 316.466 220.4 317.047 220.673C317.629 220.947 318.268 221.079 318.91 221.057C319.563 221.075 320.212 220.948 320.81 220.686C321.408 220.423 321.94 220.031 322.368 219.538C323.278 218.475 323.759 217.111 323.718 215.713V213.35ZM326.051 221.478C326.051 227.103 323.352 229.916 317.954 229.916C316.215 229.944 314.492 229.569 312.922 228.819V226.428C314.448 227.335 316.18 227.838 317.954 227.891C321.806 227.891 323.718 225.81 323.718 221.675V219.96C323.191 220.911 322.409 221.697 321.461 222.228C320.512 222.76 319.434 223.016 318.348 222.969C317.466 223.011 316.586 222.844 315.78 222.483C314.974 222.121 314.265 221.575 313.709 220.888C312.446 219.296 311.815 217.292 311.938 215.263C311.82 213.004 312.496 210.775 313.85 208.963C314.475 208.203 315.267 207.597 316.164 207.192C317.061 206.787 318.039 206.595 319.023 206.629C319.966 206.574 320.906 206.785 321.736 207.237C322.565 207.69 323.252 208.366 323.718 209.188V206.994H326.051V221.478ZM305.838 222.688H303.505V213.829C303.505 210.454 302.268 208.794 299.822 208.794C299.226 208.784 298.635 208.905 298.091 209.148C297.547 209.391 297.063 209.75 296.673 210.201C295.831 211.218 295.391 212.509 295.436 213.829V222.688H293.075V207.163H295.436V209.751C295.948 208.862 296.692 208.131 297.589 207.635C298.486 207.14 299.501 206.899 300.525 206.938C301.26 206.893 301.996 207.019 302.674 207.307C303.352 207.595 303.954 208.037 304.432 208.597C305.42 209.977 305.897 211.657 305.782 213.35L305.838 222.688ZM284.528 213.547C284.605 212.324 284.235 211.115 283.488 210.144C283.137 209.748 282.703 209.435 282.217 209.226C281.732 209.017 281.206 208.917 280.677 208.935C280.111 208.927 279.55 209.035 279.028 209.253C278.505 209.47 278.033 209.793 277.641 210.201C276.754 211.107 276.199 212.286 276.066 213.547H284.528ZM286.946 215.628H275.954C275.89 217.13 276.403 218.6 277.388 219.735C277.866 220.22 278.441 220.598 279.076 220.845C279.711 221.093 280.39 221.203 281.071 221.169C282.841 221.167 284.553 220.54 285.906 219.397V221.647C284.318 222.723 282.424 223.256 280.508 223.166C279.549 223.22 278.591 223.055 277.705 222.685C276.818 222.315 276.028 221.748 275.392 221.028C274.059 219.338 273.398 217.215 273.536 215.066C273.453 212.94 274.176 210.86 275.56 209.244C276.177 208.502 276.951 207.908 277.826 207.504C278.702 207.1 279.657 206.897 280.621 206.91C281.497 206.865 282.371 207.019 283.179 207.36C283.988 207.701 284.708 208.22 285.287 208.879C286.463 210.457 287.05 212.397 286.946 214.363V215.628ZM270.078 209.666C269.514 209.319 268.857 209.152 268.195 209.188C267.63 209.167 267.07 209.3 266.575 209.572C266.08 209.845 265.668 210.247 265.384 210.735C264.608 211.959 264.235 213.394 264.315 214.841V222.8H261.954V207.276H264.315V210.51C264.602 209.517 265.156 208.621 265.918 207.922C266.592 207.324 267.462 206.994 268.364 206.994C268.879 206.978 269.393 207.055 269.882 207.219L270.078 209.666ZM256.388 222.66C255.678 223 254.897 223.164 254.11 223.138C251.44 223.138 250.118 221.647 250.118 218.638V209.301H247.307V207.276H250.118V203.451L252.452 202.719V207.276H256.388V209.301H252.452V218.216C252.369 219.014 252.557 219.816 252.986 220.494C253.212 220.73 253.489 220.911 253.796 221.023C254.103 221.136 254.432 221.176 254.757 221.141C255.34 221.145 255.91 220.968 256.388 220.635V222.66ZM230.917 219.032C231.74 219.701 232.7 220.181 233.729 220.438C234.745 220.777 235.807 220.957 236.877 220.972C240.026 220.972 241.6 219.819 241.6 217.541C241.609 216.917 241.444 216.304 241.122 215.769C240.779 215.266 240.339 214.836 239.829 214.504C239.295 214.138 238.171 213.547 236.484 212.675C234.931 211.98 233.506 211.029 232.267 209.863C231.468 208.946 231.046 207.76 231.086 206.544C231.06 205.715 231.245 204.893 231.624 204.155C232.002 203.417 232.562 202.788 233.251 202.326C234.824 201.261 236.693 200.719 238.592 200.779C240.161 200.662 241.735 200.933 243.175 201.566V204.379C241.718 203.447 240.01 202.986 238.283 203.057C237.087 202.997 235.901 203.301 234.881 203.929C234.469 204.193 234.133 204.56 233.906 204.994C233.679 205.428 233.57 205.914 233.588 206.404C233.573 206.832 233.648 207.258 233.808 207.655C233.968 208.052 234.209 208.412 234.516 208.71C235.685 209.642 236.97 210.417 238.339 211.016C240.074 211.752 241.636 212.844 242.922 214.222C243.675 215.144 244.091 216.295 244.102 217.485C244.145 218.317 243.983 219.148 243.63 219.903C243.277 220.658 242.744 221.315 242.078 221.816C240.404 222.885 238.439 223.406 236.456 223.306C235.508 223.282 234.566 223.159 233.644 222.941C232.765 222.802 231.918 222.507 231.142 222.069L230.917 219.032ZM215.877 209.666C215.312 209.319 214.655 209.152 213.994 209.188C213.43 209.176 212.874 209.313 212.381 209.584C211.887 209.856 211.474 210.253 211.182 210.735C210.42 211.964 210.048 213.396 210.114 214.841V222.8H207.753V207.276H210.114V210.51C210.408 209.513 210.973 208.618 211.745 207.922C212.406 207.321 213.269 206.99 214.162 206.994C214.678 206.978 215.192 207.055 215.68 207.219L215.877 209.666ZM200.499 222.8H198.138V220.353C197.699 221.234 197.013 221.969 196.165 222.468C195.317 222.967 194.342 223.21 193.359 223.166C189.648 223.166 187.736 220.972 187.736 216.557V207.276H189.901V216.163C189.901 219.51 191.194 221.169 193.724 221.169C194.306 221.186 194.884 221.071 195.415 220.832C195.945 220.593 196.415 220.237 196.789 219.791C197.626 218.795 198.058 217.519 197.997 216.219V207.276H200.359L200.499 222.8ZM168.929 215.122C168.844 216.721 169.355 218.294 170.363 219.538C170.837 220.079 171.427 220.506 172.089 220.788C172.751 221.07 173.467 221.201 174.186 221.169C174.897 221.22 175.611 221.104 176.27 220.831C176.929 220.557 177.515 220.134 177.981 219.594C178.947 218.291 179.416 216.685 179.302 215.066C179.408 213.44 178.94 211.828 177.981 210.51C177.516 209.967 176.931 209.539 176.273 209.261C175.614 208.982 174.9 208.861 174.186 208.907C173.461 208.878 172.739 209.013 172.072 209.3C171.406 209.587 170.812 210.02 170.335 210.566C169.307 211.816 168.759 213.392 168.788 215.01L168.929 215.122ZM166.539 215.122C166.405 212.889 167.164 210.694 168.648 209.019C169.383 208.283 170.261 207.706 171.228 207.324C172.196 206.942 173.231 206.763 174.27 206.798C175.266 206.749 176.261 206.915 177.187 207.283C178.113 207.652 178.95 208.215 179.64 208.935C181.038 210.595 181.743 212.731 181.608 214.897C181.689 217.077 180.923 219.204 179.471 220.831C178.748 221.583 177.871 222.17 176.901 222.554C175.931 222.937 174.89 223.107 173.849 223.053C172.843 223.094 171.84 222.922 170.905 222.548C169.97 222.175 169.125 221.609 168.423 220.888C167.016 219.307 166.289 217.236 166.399 215.122H166.539ZM140.535 219.538C141.824 220.507 143.393 221.03 145.005 221.028C147.198 221.028 148.294 220.297 148.294 218.807C148.306 218.508 148.249 218.21 148.127 217.937C148.005 217.663 147.822 217.422 147.591 217.232C146.732 216.615 145.784 216.131 144.78 215.797C143.539 215.387 142.406 214.705 141.463 213.8C141.142 213.379 140.908 212.897 140.777 212.383C140.645 211.869 140.618 211.334 140.696 210.81C140.775 210.285 140.958 209.782 141.234 209.329C141.511 208.877 141.875 208.485 142.306 208.176C143.529 207.311 144.999 206.867 146.495 206.91C147.722 206.887 148.939 207.127 150.065 207.613V210.06C148.896 209.298 147.525 208.906 146.129 208.935C145.319 208.883 144.515 209.111 143.852 209.582C143.599 209.765 143.393 210.006 143.251 210.285C143.109 210.564 143.036 210.872 143.037 211.185C143.019 211.474 143.062 211.764 143.164 212.036C143.265 212.307 143.423 212.554 143.627 212.76C144.45 213.334 145.349 213.788 146.298 214.11C147.649 214.533 148.889 215.254 149.925 216.219C150.488 216.919 150.786 217.796 150.768 218.694C150.788 219.34 150.641 219.98 150.34 220.551C150.04 221.123 149.596 221.607 149.053 221.956C147.767 222.814 146.24 223.238 144.696 223.166C143.271 223.208 141.859 222.889 140.591 222.238L140.535 219.538ZM131.708 222.688V207.163H134.041V222.688H131.708ZM131.37 201.566C131.369 201.363 131.409 201.161 131.486 200.973C131.563 200.785 131.677 200.614 131.82 200.47C131.962 200.324 132.133 200.208 132.322 200.131C132.51 200.053 132.713 200.016 132.916 200.02C133.121 200.012 133.324 200.048 133.513 200.126C133.702 200.204 133.873 200.321 134.013 200.47C134.159 200.612 134.274 200.783 134.352 200.971C134.429 201.16 134.467 201.362 134.463 201.566C134.469 201.775 134.432 201.982 134.355 202.176C134.277 202.369 134.161 202.545 134.013 202.691C133.867 202.831 133.695 202.94 133.507 203.013C133.319 203.085 133.118 203.119 132.916 203.113C132.711 203.121 132.507 203.087 132.316 203.012C132.124 202.937 131.951 202.823 131.806 202.678C131.66 202.533 131.547 202.359 131.472 202.168C131.397 201.976 131.362 201.772 131.37 201.566ZM116.021 207.191L108.824 225.303C107.559 228.453 105.788 230.028 103.539 230.028C103.028 230.031 102.518 229.974 102.021 229.859V227.609C102.472 227.773 102.947 227.858 103.426 227.863C104.076 227.83 104.698 227.592 105.204 227.183C105.709 226.773 106.071 226.214 106.238 225.584L107.503 222.575L101.458 207.079H104.073L108.374 219.172L108.711 220.269L109.021 219.2L113.519 207.051L116.021 207.191ZM98.0848 222.575C97.3845 222.913 96.613 223.077 95.8358 223.053C93.0245 223.053 91.8157 221.563 91.8157 218.553V209.216H89.145V207.191H91.8157V203.366L94.1491 202.635V207.191H98.0848V209.216H94.1491V218.132C94.0724 218.933 94.2707 219.736 94.7113 220.41C94.9374 220.646 95.2146 220.827 95.5217 220.939C95.8287 221.051 96.1574 221.091 96.4824 221.057C97.058 221.071 97.6219 220.893 98.0848 220.55V222.575ZM81.2172 222.716V207.191H83.5506V222.716H81.2172ZM80.8799 201.595C80.879 201.391 80.9184 201.189 80.9955 201.001C81.0727 200.813 81.1863 200.642 81.3297 200.498C81.4666 200.352 81.6324 200.237 81.8163 200.16C82.0003 200.082 82.1983 200.044 82.3979 200.048C82.6062 200.042 82.8135 200.078 83.007 200.156C83.2005 200.233 83.3759 200.349 83.5225 200.498C83.6684 200.64 83.7837 200.811 83.861 200.999C83.9384 201.188 83.9763 201.391 83.9723 201.595C83.9785 201.803 83.9417 202.01 83.8643 202.204C83.787 202.397 83.6706 202.573 83.5225 202.719C83.2165 203.001 82.8132 203.152 82.3979 203.141C82.0003 203.146 81.6168 202.995 81.3297 202.719C81.1603 202.578 81.0227 202.401 80.9258 202.203C80.829 202.004 80.775 201.787 80.7674 201.566L80.8799 201.595ZM71.4059 222.716V199.738H73.7392V222.716H71.4059ZM58.1648 215.347C57.1687 215.393 56.2009 215.694 55.3535 216.219C55.0543 216.503 54.8211 216.849 54.6704 217.233C54.5198 217.617 54.4555 218.029 54.482 218.441C54.4686 218.803 54.5376 219.163 54.6837 219.494C54.8298 219.826 55.0492 220.119 55.3254 220.353C55.9438 220.855 56.7229 221.114 57.5182 221.085C58.1006 221.097 58.6788 220.983 59.2128 220.75C59.7467 220.517 60.2237 220.17 60.6106 219.735C61.44 218.832 61.8839 217.641 61.8475 216.416V214.841L58.1648 215.347ZM53.6949 208.288C55.2612 207.308 57.0766 206.8 58.9238 206.826C62.5222 206.826 64.3215 208.701 64.3215 212.45V222.603H61.96V220.157C61.5198 221.031 60.8382 221.76 59.9961 222.259C59.1541 222.757 58.1868 223.004 57.2089 222.969C55.8905 223.041 54.5939 222.609 53.5824 221.76C53.1337 221.347 52.7806 220.841 52.5475 220.277C52.3144 219.714 52.2071 219.106 52.233 218.497C52.233 215.685 53.9479 213.941 57.3495 213.463L62.0443 212.788C62.0443 209.976 60.976 208.738 58.8113 208.738C56.9496 208.728 55.1525 209.421 53.7792 210.679L53.6949 208.288ZM45.9076 222.716H43.5462V220.269C43.1067 221.15 42.4214 221.884 41.5731 222.384C40.7249 222.883 39.7501 223.125 38.767 223.081C35.0561 223.081 33.1445 220.888 33.1445 216.472V207.191H35.281V216.078C35.281 219.425 36.5461 221.085 39.0762 221.085C39.6579 221.101 40.2358 220.986 40.7665 220.747C41.2972 220.509 41.767 220.153 42.1405 219.707C42.9782 218.71 43.4098 217.435 43.3493 216.135V207.191H45.7108L45.9076 222.716ZM9.13616 211.888C9.04562 214.231 9.7821 216.531 11.2165 218.385C11.8912 219.216 12.7511 219.878 13.7275 220.318C14.7038 220.757 15.7694 220.962 16.8391 220.916C17.9177 220.978 18.9962 220.795 19.9942 220.381C20.9922 219.967 21.8837 219.332 22.6022 218.525C24.0899 216.656 24.8312 214.301 24.6825 211.916C24.8295 209.519 24.1223 207.147 22.6865 205.223C21.9963 204.416 21.1306 203.779 20.156 203.36C19.1813 202.941 18.1236 202.75 17.064 202.804C15.9938 202.774 14.931 202.989 13.9565 203.432C12.9821 203.876 12.1219 204.536 11.4414 205.363C9.87248 207.162 9.01293 209.472 9.02373 211.86L9.13616 211.888ZM6.63413 212.113C6.46595 209.045 7.47108 206.029 9.4454 203.676C10.4251 202.626 11.6219 201.803 12.9523 201.264C14.2827 200.725 15.7147 200.482 17.1483 200.554C18.5038 200.502 19.8542 200.749 21.103 201.279C22.3519 201.809 23.4685 202.608 24.3733 203.619C26.2869 205.786 27.2936 208.605 27.1845 211.494C27.2089 213.425 26.8357 215.339 26.0881 217.119C25.4143 218.7 24.3384 220.077 22.9676 221.113L29.0681 225.472H24.5982L20.4375 222.35C19.2755 222.728 18.0608 222.918 16.8391 222.913C15.4624 222.968 14.0901 222.723 12.818 222.193C11.5459 221.664 10.4046 220.863 9.47354 219.847C7.53598 217.731 6.48 214.954 6.5217 212.085L6.63413 212.113Z" fill="white"/>
<path d="M791.316 49.639V31.2739H796.938L800.227 43.7892L803.488 31.2739H809.111V49.639H805.569V35.1831L801.942 49.639H798.372L794.774 35.1831V49.639H791.316ZM779.846 49.639V34.3676H774.42V31.2739H788.954V34.3676H783.557V49.639H779.846Z" fill="white"/>
</g>
<defs>
<clipPath id="clip0_611_4818">
<rect width="809" height="230" fill="white"/>
</clipPath>
</defs>
</svg>
