<svg width="165" height="47" viewBox="0 0 165 47" fill="none" xmlns="http://www.w3.org/2000/svg">
<g clip-path="url(#clip0_429_806)">
<path d="M155.941 38.1494H131.343C128.608 38.2067 125.962 37.1731 123.987 35.2758C123.002 34.3577 122.223 33.2406 121.701 31.9982C121.179 30.7558 120.926 29.4165 120.96 28.0689V16.385C120.923 15.0336 121.174 13.6899 121.696 12.4433C122.218 11.1967 122.999 10.0758 123.987 9.15512C125.962 7.25785 128.608 6.22428 131.343 6.28156H155.941V13.7528H131.343C129.367 13.7528 128.377 14.636 128.373 16.4022V28.0632C128.373 29.8294 129.363 30.7126 131.343 30.7126H155.941V38.1494ZM73.4268 17.0861C73.4268 14.8563 72.8916 13.7413 71.8213 13.7413H48.4792V20.3678H71.8442C72.9031 20.3678 73.4306 19.2739 73.4268 17.0861ZM80.8462 17.0861C80.9156 19.7201 80.0863 22.2989 78.4954 24.3965C77.7488 25.4714 76.749 26.3449 75.5847 26.9395C74.4204 27.534 73.1277 27.8312 71.8213 27.8046H48.4792V38.1494H41.0253V6.28156H71.8041C73.117 6.25654 74.4156 6.55848 75.5834 7.16031C76.7512 7.76213 77.7518 8.64502 78.4954 9.72983C80.0779 11.8493 80.9056 14.4395 80.8462 17.0861ZM37.9521 28.3275C38.0138 30.8324 37.1547 33.2726 35.5381 35.1839C34.735 36.1361 33.7298 36.8965 32.5959 37.4095C31.4621 37.9226 30.2282 38.1754 28.9845 38.1494H1.5485V30.7126H28.9845C30.0127 30.7126 30.5269 29.9176 30.5269 28.3275C30.5269 26.7413 30.0108 25.9425 28.9845 25.9425H9.02531C7.77908 25.9662 6.54341 25.7095 5.40923 25.1913C4.27505 24.6731 3.27122 23.9066 2.47163 22.9482C0.818598 21.0706 -0.0642771 18.6355 0.000387124 16.1321C-0.0507936 13.5834 0.853526 11.1082 2.5347 9.19535C3.33026 8.25399 4.32638 7.50353 5.44969 6.99925C6.57301 6.49496 7.79489 6.24971 9.02531 6.28156H36.467V13.7528H8.94503C7.91296 13.7528 7.40266 14.5574 7.40266 16.1666C7.40266 17.7758 7.91296 18.5229 8.94503 18.5229H28.9845C30.2303 18.4961 31.4664 18.7478 32.603 19.2598C33.7396 19.7718 34.7482 20.5312 35.5554 21.4827C37.163 23.3935 38.0158 25.8288 37.9521 28.3275Z" fill="white"/>
<path fill-rule="evenodd" clip-rule="evenodd" d="M84.0278 22.2298C84.025 18.4296 85.3117 14.7414 87.6766 11.771C90.0415 8.80069 93.3439 6.72485 97.0415 5.88454C100.739 5.04424 104.612 5.48943 108.024 7.14697C111.435 8.80451 114.183 11.5758 115.816 15.0057L93.2018 21.1724H122.891C122.841 20.1366 122.721 19.1054 122.53 18.0862C122.336 17.0403 122.064 16.0105 121.716 15.0057C119.964 9.89562 116.415 5.60023 111.732 2.92304C107.05 0.245853 101.555 -0.629731 96.2747 0.460062C90.9948 1.54985 86.2917 4.53037 83.0454 8.84408C79.7991 13.1578 78.2319 18.5092 78.6369 23.8972C79.0419 29.2853 81.3915 34.3409 85.246 38.1184C89.1005 41.8958 94.196 44.1363 99.5793 44.4208C104.963 44.7053 110.265 43.0143 114.494 39.664C118.724 36.3138 121.591 31.5338 122.559 26.2184H116.968C116 30.1989 113.609 33.6854 110.248 36.018C106.888 38.3506 102.79 39.3675 98.7322 38.8761C94.674 38.3847 90.9363 36.4192 88.2265 33.3516C85.5168 30.284 84.023 26.3271 84.0278 22.2298Z" fill="#00A198"/>
<path d="M78.1682 45.2413C78.1665 45.1965 78.1742 45.1517 78.191 45.1101C78.2078 45.0685 78.2333 45.0309 78.2657 45C78.2955 44.9692 78.3312 44.9447 78.3706 44.9279C78.4099 44.9111 78.4523 44.9024 78.4951 44.9023C78.5833 44.9023 78.6678 44.9374 78.7301 45C78.7615 45.0318 78.7862 45.0695 78.8029 45.1109C78.8197 45.1523 78.828 45.1967 78.8276 45.2413C78.8282 45.2852 78.8199 45.3287 78.8032 45.3693C78.7864 45.4098 78.7616 45.4464 78.7301 45.477C78.6995 45.5082 78.6629 45.5329 78.6225 45.5497C78.5821 45.5665 78.5388 45.575 78.4951 45.5747C78.4521 45.5759 78.4093 45.5679 78.3697 45.551C78.3301 45.5341 78.2947 45.5089 78.2657 45.477C78.2334 45.4471 78.208 45.4106 78.1912 45.3699C78.1743 45.3292 78.1665 45.2854 78.1682 45.2413ZM76.3334 45.2413C76.3349 45.1529 76.3702 45.0683 76.4321 45.0052C76.494 44.9421 76.5777 44.9052 76.666 44.9023C76.7542 44.9023 76.8387 44.9374 76.9011 45C76.9324 45.0318 76.9571 45.0695 76.9739 45.1109C76.9906 45.1523 76.999 45.1967 76.9986 45.2413C76.9973 45.3295 76.9624 45.4138 76.9011 45.477C76.8704 45.5082 76.8338 45.5329 76.7934 45.5497C76.753 45.5665 76.7097 45.575 76.666 45.5747C76.6221 45.576 76.5785 45.568 76.538 45.5512C76.4975 45.5343 76.461 45.509 76.4309 45.477C76.3998 45.4462 76.3751 45.4095 76.3584 45.3691C76.3416 45.3286 76.3331 45.2852 76.3334 45.2413ZM74.5044 45.2413C74.5058 45.1529 74.5411 45.0683 74.603 45.0052C74.6649 44.9421 74.7487 44.9052 74.8369 44.9023C74.9249 44.9035 75.009 44.9385 75.072 45C75.1033 45.0318 75.1281 45.0695 75.1448 45.1109C75.1615 45.1523 75.1699 45.1967 75.1695 45.2413C75.1682 45.3295 75.1334 45.4138 75.072 45.477C75.0097 45.5395 74.9251 45.5746 74.8369 45.5747C74.7931 45.576 74.7494 45.568 74.7089 45.5512C74.6684 45.5343 74.6319 45.509 74.6018 45.477C74.5707 45.4462 74.546 45.4095 74.5293 45.3691C74.5125 45.3286 74.5041 45.2852 74.5044 45.2413ZM73.2315 45.5057H72.7556V43.6781C72.7556 43 72.5033 42.6666 72.0045 42.6666C71.8833 42.6649 71.7633 42.6904 71.6532 42.7411C71.5431 42.7918 71.4457 42.8665 71.368 42.9597C71.1906 43.1692 71.0984 43.4381 71.11 43.7126V45.5057H70.6284V40.8103H71.11V42.862C71.2148 42.6797 71.3675 42.5296 71.5515 42.4283C71.7355 42.3269 71.9438 42.2782 72.1535 42.2873C72.8645 42.2873 73.22 42.7184 73.22 43.5804L73.2315 45.5057ZM69.4644 45.477C69.3216 45.546 69.1642 45.5795 69.0057 45.5747C68.461 45.5747 68.1858 45.2701 68.1858 44.6551V42.7471H67.6411V42.3333H68.1858V41.5517L68.6617 41.4023V42.3333H69.4644V42.7471H68.6617V44.5689C68.6474 44.7318 68.6856 44.8949 68.7706 45.0344C68.8184 45.0821 68.876 45.1187 68.9394 45.1416C69.0028 45.1644 69.0705 45.173 69.1376 45.1666C69.255 45.1696 69.37 45.1332 69.4644 45.0632V45.477ZM66.0242 43.5977C66.0269 43.4754 66.0049 43.3538 65.9596 43.2402C65.9143 43.1266 65.8465 43.0234 65.7604 42.9367C65.6783 42.849 65.5787 42.7797 65.468 42.7331C65.3574 42.6866 65.2382 42.6639 65.1182 42.6666C64.9741 42.66 64.8305 42.6884 64.6997 42.7495C64.5689 42.8105 64.4548 42.9024 64.3671 43.0172C64.1707 43.3013 64.0758 43.6435 64.0976 43.9885C64.082 44.2979 64.1754 44.603 64.3614 44.8505C64.4414 44.9546 64.5451 45.0381 64.6637 45.0941C64.7824 45.1501 64.9126 45.1769 65.0437 45.1724C65.1768 45.1762 65.3092 45.1503 65.4311 45.0966C65.5531 45.043 65.6616 44.9628 65.7489 44.862C65.9345 44.6449 66.0326 44.3662 66.0242 44.0804V43.5977ZM66.5001 45.2586C66.5001 46.408 65.9496 46.9827 64.8487 46.9827C64.4939 46.9886 64.1426 46.9119 63.8224 46.7586V46.2701C64.1337 46.4554 64.4869 46.5582 64.8487 46.5689C65.6343 46.5689 66.0242 46.1437 66.0242 45.2988V44.9482C65.9167 45.1427 65.7573 45.3032 65.5638 45.4118C65.3704 45.5204 65.1506 45.5729 64.929 45.5632C64.7491 45.5718 64.5697 45.5377 64.4053 45.4638C64.2409 45.3899 64.0962 45.2783 63.983 45.1379C63.7252 44.8125 63.5965 44.4032 63.6217 43.9885C63.5975 43.5269 63.7355 43.0713 64.0116 42.7011C64.1391 42.5458 64.3006 42.4219 64.4836 42.3392C64.6665 42.2565 64.866 42.2171 65.0666 42.2241C65.259 42.213 65.4507 42.2561 65.6199 42.3485C65.7892 42.4409 65.9292 42.579 66.0242 42.7471V42.2988H66.5001V45.2586ZM62.3775 45.5057H61.9016V43.6954C61.9016 43.0057 61.6493 42.6666 61.1505 42.6666C61.029 42.6646 60.9085 42.6892 60.7976 42.7389C60.6866 42.7885 60.5879 42.862 60.5083 42.954C60.3366 43.1619 60.2468 43.4256 60.256 43.6954V45.5057H59.7744V42.3333H60.256V42.862C60.3603 42.6805 60.5122 42.5311 60.6951 42.4298C60.878 42.3285 61.085 42.2792 61.2938 42.2873C61.4438 42.278 61.5939 42.3038 61.7322 42.3627C61.8705 42.4215 61.9933 42.5118 62.0908 42.6264C62.2922 42.9083 62.3895 43.2517 62.366 43.5977L62.3775 45.5057ZM58.0313 43.6379C58.0469 43.388 57.9715 43.1409 57.8192 42.9425C57.7476 42.8616 57.6591 42.7975 57.56 42.7548C57.4609 42.7121 57.3536 42.6918 57.2458 42.6954C57.1304 42.6937 57.0159 42.7158 56.9094 42.7603C56.8029 42.8048 56.7066 42.8707 56.6265 42.954C56.4457 43.1392 56.3325 43.3802 56.3055 43.6379H58.0313ZM58.5244 44.0632H56.2825C56.2694 44.3701 56.374 44.6703 56.5749 44.9023C56.6725 45.0014 56.7898 45.0787 56.9193 45.1292C57.0487 45.1798 57.1873 45.2023 57.3261 45.1954C57.6871 45.195 58.0364 45.0668 58.3123 44.8333V45.2931C57.9884 45.5129 57.6022 45.6218 57.2114 45.6034C57.0158 45.6144 56.8203 45.5808 56.6396 45.5052C56.4588 45.4295 56.2976 45.3138 56.1679 45.1666C55.896 44.8213 55.7612 44.3873 55.7894 43.9482C55.7724 43.5137 55.9199 43.0888 56.2023 42.7586C56.3279 42.607 56.4858 42.4855 56.6644 42.4029C56.843 42.3204 57.0377 42.2789 57.2343 42.2816C57.413 42.2724 57.5914 42.3038 57.7562 42.3735C57.921 42.4432 58.068 42.5493 58.1861 42.6839C58.4259 43.0064 58.5455 43.4029 58.5244 43.8046V44.0632ZM55.0842 42.8448C54.969 42.7738 54.835 42.7398 54.7 42.7471C54.5849 42.7428 54.4707 42.77 54.3697 42.8256C54.2687 42.8813 54.1847 42.9634 54.1266 43.0632C53.9685 43.3133 53.8923 43.6066 53.9088 43.9023V45.5287H53.4271V42.3563H53.9088V43.0172C53.9672 42.8142 54.0802 42.6313 54.2356 42.4885C54.3731 42.3662 54.5506 42.2987 54.7344 42.2988C54.8395 42.2955 54.9444 42.3111 55.044 42.3448L55.0842 42.8448ZM52.2918 45.5C52.1471 45.5695 51.9878 45.603 51.8274 45.5977C51.2827 45.5977 51.0132 45.2931 51.0132 44.6781V42.7701H50.4398V42.3563H51.0132V41.5747L51.4891 41.4252V42.3563H52.2918V42.7701H51.4891V44.5919C51.4723 44.755 51.5106 44.9189 51.5981 45.0574C51.6442 45.1057 51.7007 45.1427 51.7633 45.1656C51.826 45.1886 51.893 45.1968 51.9593 45.1896C52.0782 45.1905 52.1944 45.1544 52.2918 45.0862V45.5ZM47.0971 44.7586C47.2648 44.8954 47.4606 44.9935 47.6704 45.0459C47.8776 45.1153 48.0942 45.1521 48.3126 45.1551C48.9548 45.1551 49.2759 44.9195 49.2759 44.454C49.2777 44.3266 49.2439 44.2012 49.1784 44.0919C49.1083 43.9892 49.0187 43.9013 48.9147 43.8333C48.8057 43.7586 48.5764 43.6379 48.2324 43.4597C47.9157 43.3176 47.625 43.1234 47.3723 42.885C47.2093 42.6976 47.1233 42.4553 47.1315 42.2069C47.1261 42.0374 47.1639 41.8694 47.2411 41.7186C47.3183 41.5678 47.4325 41.4392 47.573 41.3448C47.8939 41.1271 48.2751 41.0165 48.6624 41.0287C48.9824 41.0049 49.3033 41.0601 49.597 41.1896V41.7643C49.2999 41.5739 48.9516 41.4796 48.5993 41.4942C48.3554 41.4821 48.1135 41.5442 47.9055 41.6724C47.8214 41.7264 47.7529 41.8014 47.7066 41.8901C47.6603 41.9788 47.638 42.0781 47.6418 42.1781C47.6387 42.2656 47.654 42.3527 47.6866 42.4338C47.7192 42.515 47.7684 42.5884 47.831 42.6494C48.0694 42.8398 48.3315 42.9982 48.6108 43.1207C48.9647 43.2709 49.2831 43.4942 49.5454 43.7758C49.699 43.9641 49.7839 44.1993 49.7862 44.4425C49.7949 44.6126 49.7619 44.7823 49.6899 44.9366C49.6179 45.091 49.5092 45.2252 49.3734 45.3276C49.032 45.546 48.6312 45.6525 48.2266 45.6322C48.0334 45.6272 47.8413 45.6021 47.6532 45.5574C47.4739 45.5291 47.3011 45.4687 47.1429 45.3793L47.0971 44.7586ZM44.0295 42.8448C43.9143 42.7738 43.7803 42.7398 43.6454 42.7471C43.5305 42.7446 43.417 42.7725 43.3164 42.828C43.2157 42.8835 43.1314 42.9646 43.072 43.0632C42.9166 43.3144 42.8406 43.6069 42.8541 43.9023V45.5287H42.3725V42.3563H42.8541V43.0172C42.9141 42.8136 43.0292 42.6305 43.1867 42.4885C43.3216 42.3656 43.4975 42.298 43.6798 42.2988C43.7849 42.2955 43.8897 42.3111 43.9894 42.3448L44.0295 42.8448ZM40.8932 45.5287H40.4115V45.0287C40.3219 45.2087 40.1821 45.3588 40.0091 45.4608C39.8361 45.5628 39.6373 45.6124 39.4368 45.6034C38.6799 45.6034 38.29 45.1551 38.29 44.2528V42.3563H38.7315V44.1724C38.7315 44.8563 38.9953 45.1954 39.5113 45.1954C39.63 45.1988 39.7478 45.1752 39.8561 45.1265C39.9643 45.0777 40.0601 45.005 40.1363 44.9138C40.3071 44.7102 40.3952 44.4496 40.3829 44.1839V42.3563H40.8645L40.8932 45.5287ZM34.4542 43.9597C34.4369 44.2864 34.5411 44.6079 34.7466 44.862C34.8434 44.9725 34.9637 45.0599 35.0987 45.1175C35.2336 45.1752 35.3798 45.2018 35.5264 45.1954C35.6715 45.2058 35.817 45.1822 35.9514 45.1263C36.0858 45.0704 36.2053 44.9839 36.3004 44.8735C36.4974 44.6072 36.593 44.279 36.5699 43.9482C36.5914 43.6159 36.496 43.2865 36.3004 43.0172C36.2056 42.9062 36.0863 42.8188 35.9519 42.7619C35.8176 42.7051 35.6719 42.6803 35.5264 42.6896C35.3785 42.6838 35.2312 42.7113 35.0953 42.7699C34.9594 42.8286 34.8383 42.917 34.7408 43.0287C34.5314 43.2842 34.4196 43.6061 34.4255 43.9367L34.4542 43.9597ZM33.9668 43.9597C33.9395 43.5033 34.0942 43.0547 34.3968 42.7126C34.5467 42.5622 34.7259 42.4443 34.9232 42.3662C35.1204 42.2881 35.3316 42.2515 35.5436 42.2586C35.7467 42.2487 35.9495 42.2825 36.1384 42.3579C36.3273 42.4332 36.4979 42.5483 36.6387 42.6954C36.9239 43.0346 37.0677 43.471 37.0401 43.9138C37.0567 44.3592 36.9005 44.7939 36.6043 45.1264C36.4568 45.28 36.278 45.4 36.0802 45.4783C35.8823 45.5567 35.67 45.5915 35.4576 45.5804C35.2525 45.5887 35.0479 45.5535 34.8573 45.4773C34.6666 45.401 34.4941 45.2854 34.351 45.1379C34.0641 44.8149 33.9158 44.3916 33.9381 43.9597H33.9668ZM28.6631 44.862C28.9259 45.0601 29.2459 45.1671 29.5747 45.1666C30.022 45.1666 30.2456 45.0172 30.2456 44.7126C30.2481 44.6515 30.2364 44.5907 30.2116 44.5349C30.1867 44.479 30.1493 44.4297 30.1022 44.3908C29.9269 44.2647 29.7336 44.1659 29.5289 44.0977C29.2758 44.0139 29.0447 43.8744 28.8523 43.6896C28.7868 43.6034 28.7392 43.5049 28.7124 43.3999C28.6855 43.295 28.6799 43.1856 28.696 43.0785C28.712 42.9713 28.7493 42.8684 28.8057 42.776C28.8621 42.6835 28.9365 42.6034 29.0243 42.5402C29.2737 42.3636 29.5734 42.2728 29.8786 42.2816C30.1288 42.2769 30.3771 42.3259 30.6068 42.4253V42.9253C30.3684 42.7695 30.0886 42.6894 29.8041 42.6954C29.6387 42.6847 29.4748 42.7314 29.3397 42.8275C29.288 42.865 29.2459 42.9142 29.217 42.9712C29.1881 43.0282 29.1731 43.0912 29.1734 43.1551C29.1696 43.2143 29.1784 43.2735 29.1992 43.329C29.2199 43.3845 29.2522 43.4349 29.2938 43.477C29.4615 43.5942 29.6449 43.6871 29.8385 43.7528C30.1141 43.8393 30.3668 43.9866 30.5782 44.1839C30.693 44.327 30.7539 44.506 30.7502 44.6896C30.7543 44.8215 30.7242 44.9523 30.6629 45.0691C30.6016 45.186 30.5112 45.2849 30.4004 45.3563C30.138 45.5315 29.8266 45.6181 29.5117 45.6034C29.2211 45.6121 28.9331 45.5469 28.6746 45.4138L28.6631 44.862ZM26.8627 45.5057V42.3333H27.3386V45.5057H26.8627ZM26.7939 41.1896C26.7937 41.148 26.8017 41.1068 26.8175 41.0684C26.8332 41.0299 26.8564 40.995 26.8856 40.9655C26.9146 40.9356 26.9494 40.9121 26.9879 40.8963C27.0264 40.8804 27.0677 40.8727 27.1092 40.8735C27.1509 40.872 27.1924 40.8794 27.231 40.8953C27.2695 40.9111 27.3043 40.9351 27.3328 40.9655C27.3626 40.9946 27.3861 41.0295 27.4019 41.068C27.4177 41.1066 27.4254 41.148 27.4246 41.1896C27.4259 41.2322 27.4184 41.2746 27.4026 41.3141C27.3868 41.3537 27.3631 41.3896 27.3328 41.4195C27.3032 41.4481 27.2681 41.4704 27.2297 41.4852C27.1913 41.5 27.1504 41.507 27.1092 41.5057C27.0674 41.5073 27.0257 41.5003 26.9867 41.485C26.9477 41.4696 26.9123 41.4464 26.8827 41.4167C26.8531 41.387 26.8299 41.3516 26.8146 41.3125C26.7993 41.2734 26.7923 41.2316 26.7939 41.1896ZM23.6633 42.339L22.1954 46.0402C21.9374 46.6839 21.5762 47.0057 21.1175 47.0057C21.0133 47.0062 20.9094 46.9947 20.8079 46.9712V46.5115C20.8998 46.5448 20.9967 46.5623 21.0945 46.5632C21.227 46.5566 21.354 46.508 21.4571 46.4243C21.5602 46.3406 21.634 46.2262 21.6679 46.0977L21.9259 45.4827L20.6932 42.3161H21.2264L22.1037 44.7873L22.1725 45.0115L22.2355 44.7931L23.153 42.3103L23.6633 42.339ZM20.0051 45.4827C19.8623 45.5518 19.7049 45.5853 19.5464 45.5804C18.973 45.5804 18.7265 45.2758 18.7265 44.6609V42.7528H18.1818V42.339H18.7265V41.5574L19.2024 41.408V42.339H20.0051V42.7528H19.2024V44.5747C19.1868 44.7384 19.2272 44.9026 19.3171 45.0402C19.3632 45.0885 19.4197 45.1255 19.4824 45.1484C19.545 45.1713 19.612 45.1795 19.6783 45.1724C19.7957 45.1753 19.9107 45.1389 20.0051 45.0689V45.4827ZM16.5649 45.5115V42.339H17.0408V45.5115H16.5649ZM16.4961 41.1954C16.4959 41.1538 16.5039 41.1126 16.5197 41.0741C16.5354 41.0357 16.5586 41.0007 16.5878 40.9712C16.6157 40.9415 16.6496 40.918 16.6871 40.9022C16.7246 40.8864 16.765 40.8786 16.8057 40.8793C16.8482 40.878 16.8905 40.8855 16.9299 40.9013C16.9694 40.9171 17.0052 40.9409 17.035 40.9712C17.0648 41.0003 17.0883 41.0352 17.1041 41.0738C17.1199 41.1123 17.1276 41.1537 17.1268 41.1954C17.1281 41.2379 17.1206 41.2803 17.1048 41.3199C17.089 41.3594 17.0653 41.3953 17.035 41.4252C16.9726 41.4827 16.8904 41.5136 16.8057 41.5115C16.7246 41.5124 16.6464 41.4815 16.5878 41.4252C16.5533 41.3962 16.5252 41.3603 16.5055 41.3197C16.4857 41.2791 16.4747 41.2348 16.4731 41.1896L16.4961 41.1954ZM14.5638 45.5115V40.8161H15.0397V45.5115H14.5638ZM11.8632 44.0057C11.6601 44.0151 11.4627 44.0765 11.2898 44.1839C11.2288 44.2419 11.1812 44.3126 11.1505 44.391C11.1198 44.4695 11.1067 44.5538 11.1121 44.6379C11.1094 44.7118 11.1234 44.7854 11.1532 44.8531C11.183 44.9208 11.2278 44.9809 11.2841 45.0287C11.4102 45.1311 11.5691 45.1842 11.7313 45.1781C11.8501 45.1807 11.9681 45.1574 12.077 45.1097C12.1859 45.0621 12.2831 44.9913 12.362 44.9023C12.5312 44.7179 12.6217 44.4745 12.6143 44.2241V43.9023L11.8632 44.0057ZM10.9515 42.5632C11.271 42.3629 11.6413 42.2592 12.018 42.2643C12.7519 42.2643 13.1189 42.6475 13.1189 43.4138V45.4885H12.6373V44.9885C12.5475 45.1671 12.4085 45.3162 12.2367 45.4181C12.065 45.5199 11.8677 45.5703 11.6683 45.5632C11.3994 45.5779 11.1349 45.4896 10.9286 45.3161C10.8371 45.2317 10.7651 45.1283 10.7175 45.0132C10.67 44.898 10.6481 44.7739 10.6534 44.6494C10.6534 44.0747 11.0031 43.7184 11.6969 43.6207L12.6545 43.4827C12.6545 42.908 12.4366 42.6551 11.9951 42.6551C11.6154 42.6531 11.2488 42.7947 10.9687 43.0517L10.9515 42.5632ZM9.36329 45.5115H8.88166V45.0115C8.79204 45.1915 8.65226 45.3416 8.47925 45.4436C8.30625 45.5456 8.10745 45.5951 7.90693 45.5862C7.15007 45.5862 6.76018 45.1379 6.76018 44.2356V42.339H7.19594V44.1551C7.19594 44.839 7.45396 45.1781 7.97 45.1781C8.08863 45.1816 8.20649 45.158 8.31474 45.1092C8.42298 45.0605 8.51879 44.9877 8.59497 44.8965C8.76582 44.693 8.85385 44.4324 8.84152 44.1666V42.339H9.32316L9.36329 45.5115ZM1.86355 43.2988C1.84509 43.7776 1.9953 44.2475 2.28786 44.6264C2.42547 44.7963 2.60085 44.9316 2.79998 45.0214C2.99911 45.1113 3.21645 45.1531 3.4346 45.1436C3.65459 45.1563 3.87457 45.1189 4.07811 45.0343C4.28165 44.9497 4.46349 44.8201 4.61002 44.6551C4.91345 44.2731 5.06464 43.7919 5.03432 43.3046C5.06429 42.8147 4.92005 42.3301 4.62722 41.9368C4.48645 41.772 4.30989 41.6418 4.1111 41.5562C3.91232 41.4705 3.69659 41.4316 3.48048 41.4425C3.26222 41.4364 3.04544 41.4803 2.8467 41.5709C2.64796 41.6616 2.47251 41.7965 2.33373 41.9655C2.01373 42.3332 1.83842 42.8052 1.84062 43.2931L1.86355 43.2988ZM1.35325 43.3448C1.31895 42.7179 1.52395 42.1015 1.92663 41.6206C2.12644 41.4062 2.37053 41.238 2.64187 41.1278C2.91322 41.0176 3.20528 40.9681 3.49768 40.9827C3.77415 40.9721 4.04955 41.0227 4.30426 41.131C4.55898 41.2392 4.78672 41.4025 4.97124 41.6092C5.36155 42.0518 5.56687 42.628 5.54462 43.2184C5.54959 43.6128 5.47347 44.0041 5.321 44.3678C5.18357 44.6908 4.96414 44.9722 4.68456 45.1839L5.92878 46.0747H5.01711L4.16852 45.4367C3.93153 45.5139 3.68378 45.5527 3.4346 45.5517C3.15382 45.563 2.87394 45.5129 2.61449 45.4047C2.35504 45.2965 2.12226 45.1329 1.93237 44.9252C1.53719 44.4928 1.32182 43.9254 1.33032 43.3391L1.35325 43.3448Z" fill="white"/>
<path d="M161.393 10.1436V6.39075H162.54L163.211 8.94823L163.876 6.39075H165.023V10.1436H164.3V7.18959L163.561 10.1436H162.832L162.098 7.18959V10.1436H161.393ZM159.054 10.1436V7.02293H157.947V6.39075H160.912V7.02293H159.811V10.1436H159.054Z" fill="white"/>
</g>
<defs>
<clipPath id="clip0_429_806">
<rect width="165" height="47" fill="white"/>
</clipPath>
</defs>
</svg>
