<svg width="22" height="15" viewBox="0 0 22 15" fill="none" xmlns="http://www.w3.org/2000/svg">
<line y1="0.5" x2="22" y2="0.5" stroke="white"/>
<path d="M0 9.9V5H0.749L2.891 8.577H2.499L4.606 5H5.355L5.362 9.9H4.501L4.494 6.351H4.676L2.884 9.34H2.478L0.658 6.351H0.868V9.9H0Z" fill="white"/>
<path d="M7.52555 7.037H9.96155V7.786H7.52555V7.037ZM7.59555 9.137H10.3605V9.9H6.68555V5H10.2625V5.763H7.59555V9.137Z" fill="white"/>
<path d="M11.375 9.9V5H12.124L15.197 8.773H14.826V5H15.729V9.9H14.98L11.907 6.127H12.278V9.9H11.375Z" fill="white"/>
<path d="M19.149 9.97C18.477 9.97 17.9497 9.781 17.567 9.403C17.189 9.025 17 8.479 17 7.765V5H17.91V7.73C17.91 8.234 18.0173 8.60033 18.232 8.829C18.4513 9.05767 18.7593 9.172 19.156 9.172C19.5527 9.172 19.8583 9.05767 20.073 8.829C20.2877 8.60033 20.395 8.234 20.395 7.73V5H21.291V7.765C21.291 8.479 21.0997 9.025 20.717 9.403C20.339 9.781 19.8163 9.97 19.149 9.97Z" fill="white"/>
<line x1="-6.41099e-08" y1="14.5" x2="22" y2="14.5" stroke="white"/>
</svg>
