<svg width="15" height="15" viewBox="0 0 15 15" fill="none" xmlns="http://www.w3.org/2000/svg">
<mask id="path-1-inside-1_555_836" fill="white">
<path d="M7.5 6.25839e-07C11.6421 4.4478e-07 15 3.35786 15 7.5C15 11.6421 11.6421 15 7.5 15C3.35786 15 0 11.6421 0 7.5C0 3.35787 3.35786 8.06897e-07 7.5 6.25839e-07ZM7.5 14.1457C11.1703 14.1457 14.1457 11.1703 14.1457 7.5C14.1457 3.82968 11.1703 0.854298 7.5 0.854298C3.82968 0.854298 0.854298 3.82968 0.854298 7.5C0.854298 11.1703 3.82968 14.1457 7.5 14.1457Z"/>
</mask>
<path d="M7.5 6.25839e-07C11.6421 4.4478e-07 15 3.35786 15 7.5C15 11.6421 11.6421 15 7.5 15C3.35786 15 0 11.6421 0 7.5C0 3.35787 3.35786 8.06897e-07 7.5 6.25839e-07ZM7.5 14.1457C11.1703 14.1457 14.1457 11.1703 14.1457 7.5C14.1457 3.82968 11.1703 0.854298 7.5 0.854298C3.82968 0.854298 0.854298 3.82968 0.854298 7.5C0.854298 11.1703 3.82968 14.1457 7.5 14.1457Z" stroke="#95C8C8" stroke-width="3" mask="url(#path-1-inside-1_555_836)"/>
<circle cx="7.5" cy="7.5" r="4.5" fill="#95C8C8"/>
</svg>
