<svg width="15" height="15" viewBox="0 0 15 15" fill="none" xmlns="http://www.w3.org/2000/svg">
<mask id="path-1-inside-1_555_836" fill="white">
<path d="M7.5 6.25839e-07C5.89356 6.96059e-07 4.32957 0.515802 3.03831 1.47146C1.74704 2.42712 0.796747 3.77213 0.327336 5.30845C-0.142076 6.84478 -0.105794 8.49123 0.430838 10.0054C0.96747 11.5195 1.97609 12.8214 3.3082 13.7192C4.64031 14.6171 6.2255 15.0635 7.83038 14.9927C9.43526 14.922 10.975 14.3378 12.2229 13.3261C13.4708 12.3145 14.361 10.929 14.7622 9.37346C15.1635 7.81795 15.0547 6.17469 14.4519 4.68565L13.6601 5.00622C14.1942 6.32565 14.2906 7.78173 13.935 9.16006C13.5795 10.5384 12.7907 11.7661 11.685 12.6625C10.5792 13.5589 9.21482 14.0765 7.79275 14.1393C6.37068 14.202 4.96605 13.8064 3.78567 13.0108C2.6053 12.2152 1.71157 11.0617 1.23606 9.72C0.760554 8.37832 0.728405 6.91941 1.14435 5.55808C1.56029 4.19676 2.40234 3.00495 3.54652 2.15815C4.6907 1.31135 6.07655 0.854298 7.5 0.854298V6.25839e-07Z"/>
</mask>
<path d="M7.5 6.25839e-07C5.89356 6.96059e-07 4.32957 0.515802 3.03831 1.47146C1.74704 2.42712 0.796747 3.77213 0.327336 5.30845C-0.142076 6.84478 -0.105794 8.49123 0.430838 10.0054C0.96747 11.5195 1.97609 12.8214 3.3082 13.7192C4.64031 14.6171 6.2255 15.0635 7.83038 14.9927C9.43526 14.922 10.975 14.3378 12.2229 13.3261C13.4708 12.3145 14.361 10.929 14.7622 9.37346C15.1635 7.81795 15.0547 6.17469 14.4519 4.68565L13.6601 5.00622C14.1942 6.32565 14.2906 7.78173 13.935 9.16006C13.5795 10.5384 12.7907 11.7661 11.685 12.6625C10.5792 13.5589 9.21482 14.0765 7.79275 14.1393C6.37068 14.202 4.96605 13.8064 3.78567 13.0108C2.6053 12.2152 1.71157 11.0617 1.23606 9.72C0.760554 8.37832 0.728405 6.91941 1.14435 5.55808C1.56029 4.19676 2.40234 3.00495 3.54652 2.15815C4.6907 1.31135 6.07655 0.854298 7.5 0.854298V6.25839e-07Z" stroke="#95C8C8" stroke-width="3" mask="url(#path-1-inside-1_555_836)"/>
<circle cx="7.5" cy="7.5" r="4.5" fill="#95C8C8"/>
</svg>
