<svg width="88" height="25" viewBox="0 0 88 25" fill="none" xmlns="http://www.w3.org/2000/svg">
<g clip-path="url(#clip0_745_1091)">
<path d="M83.1682 20.2914H70.0494C68.5906 20.3219 67.1794 19.7721 66.126 18.7629C65.6007 18.2746 65.1852 17.6804 64.9069 17.0195C64.6285 16.3587 64.4937 15.6463 64.5113 14.9295V8.71462C64.492 7.99577 64.6259 7.28104 64.9043 6.61796C65.1827 5.95488 65.5992 5.35865 66.126 4.86894C67.1794 3.85975 68.5906 3.30998 70.0494 3.34045H83.1682V7.31453H70.0494C68.9954 7.31453 68.4674 7.78428 68.4653 8.72379V14.9264C68.4653 15.8659 68.9933 16.3357 70.0494 16.3357H83.1682V20.2914ZM39.1605 9.08757C39.1605 7.90147 38.8751 7.30842 38.3043 7.30842H25.8552V10.8331H38.3165C38.8812 10.8331 39.1626 10.2513 39.1605 9.08757ZM43.1176 9.08757C43.1546 10.4886 42.7123 11.8603 41.8638 12.9761C41.4657 13.5478 40.9324 14.0125 40.3115 14.3287C39.6905 14.6449 39.001 14.803 38.3043 14.7889H25.8552V20.2914H21.8798V3.34045H38.2951C38.9953 3.32715 39.6879 3.48775 40.3107 3.80787C40.9336 4.12799 41.4672 4.59761 41.8638 5.17464C42.7078 6.30203 43.1493 7.67978 43.1176 9.08757ZM20.2407 15.067C20.2736 16.3994 19.8154 17.6974 18.9533 18.714C18.5249 19.2205 17.9888 19.625 17.3841 19.8979C16.7794 20.1708 16.1213 20.3052 15.458 20.2914H0.825474V16.3357H15.458C16.0064 16.3357 16.2806 15.9128 16.2806 15.067C16.2806 14.2233 16.0054 13.7984 15.458 13.7984H4.81311C4.14845 13.811 3.48943 13.6745 2.88453 13.3988C2.27964 13.1232 1.74426 12.7155 1.31781 12.2057C0.436195 11.207 -0.0346718 9.91168 -0.000184159 8.58012C-0.0274805 7.22443 0.454823 5.90781 1.35145 4.89034C1.77575 4.38962 2.30701 3.99044 2.90611 3.7222C3.50521 3.45397 4.15688 3.32351 4.81311 3.34045H19.4487V7.31453H4.77029C4.21985 7.31453 3.94769 7.74251 3.94769 8.59846C3.94769 9.45442 4.21985 9.85182 4.77029 9.85182H15.458C16.1224 9.83755 16.7817 9.97145 17.3879 10.2438C17.9941 10.5161 18.532 10.92 18.9625 11.4262C19.8199 12.4425 20.2747 13.7379 20.2407 15.067Z" fill="#110A00"/>
<path fill-rule="evenodd" clip-rule="evenodd" d="M44.8149 11.8247C44.8133 9.8033 45.4996 7.84148 46.7608 6.26151C48.0221 4.68154 49.7834 3.57737 51.7555 3.1304C53.7275 2.68343 55.7929 2.92023 57.6125 3.8019C59.4321 4.68357 60.8977 6.15768 61.7684 7.98208L49.7076 11.2622H65.542C65.5154 10.7113 65.4511 10.1628 65.3493 9.62063C65.2461 9.06429 65.1009 8.51654 64.9151 7.98208C63.9808 5.26395 62.088 2.97917 59.5906 1.55513C57.0933 0.131095 54.1625 -0.334641 51.3465 0.245036C48.5305 0.824712 46.0223 2.41009 44.2909 4.70462C42.5595 6.99915 41.7237 9.84564 41.9397 12.7116C42.1557 15.5776 43.4088 18.2668 45.4645 20.276C47.5203 22.2853 50.2379 23.4771 53.1089 23.6284C55.98 23.7797 58.8079 22.8802 61.0636 21.0982C63.3193 19.3162 64.8483 16.7736 65.3646 13.9463H62.3831C61.8664 16.0636 60.5913 17.9181 58.799 19.1588C57.0067 20.3996 54.8215 20.9405 52.6572 20.6791C50.4928 20.4177 48.4994 19.3722 47.0541 17.7405C45.6089 16.1088 44.8123 14.0041 44.8149 11.8247Z" fill="#C59B5F"/>
<path d="M41.6893 24.0636C41.6884 24.0397 41.6925 24.0159 41.7015 23.9938C41.7105 23.9717 41.724 23.9517 41.7413 23.9352C41.7572 23.9188 41.7762 23.9058 41.7972 23.8969C41.8182 23.8879 41.8408 23.8833 41.8636 23.8832C41.9107 23.8833 41.9558 23.902 41.989 23.9352C42.0057 23.9521 42.0189 23.9722 42.0278 23.9942C42.0368 24.0162 42.0412 24.0398 42.041 24.0636C42.0413 24.0869 42.0369 24.1101 42.028 24.1316C42.019 24.1532 42.0058 24.1727 41.989 24.1889C41.9727 24.2055 41.9531 24.2187 41.9316 24.2276C41.9101 24.2365 41.887 24.2411 41.8636 24.2409C41.8407 24.2416 41.8179 24.2373 41.7968 24.2283C41.7757 24.2193 41.7568 24.2059 41.7413 24.1889C41.7241 24.173 41.7105 24.1536 41.7016 24.132C41.6926 24.1103 41.6884 24.087 41.6893 24.0636ZM40.7108 24.0636C40.7115 24.0165 40.7304 23.9716 40.7634 23.938C40.7964 23.9044 40.8411 23.8848 40.8881 23.8832C40.9352 23.8833 40.9803 23.902 41.0135 23.9352C41.0302 23.9521 41.0434 23.9722 41.0523 23.9942C41.0613 24.0162 41.0657 24.0398 41.0655 24.0636C41.0648 24.1105 41.0462 24.1553 41.0135 24.1889C40.9972 24.2055 40.9776 24.2187 40.9561 24.2276C40.9346 24.2365 40.9115 24.2411 40.8881 24.2409C40.8648 24.2416 40.8415 24.2374 40.8199 24.2284C40.7983 24.2194 40.7788 24.206 40.7628 24.1889C40.7462 24.1726 40.733 24.1531 40.7241 24.1315C40.7151 24.11 40.7106 24.0869 40.7108 24.0636ZM39.7353 24.0636C39.736 24.0165 39.7549 23.9716 39.7879 23.938C39.8209 23.9044 39.8656 23.8848 39.9126 23.8832C39.9595 23.8839 40.0044 23.9025 40.038 23.9352C40.0547 23.9521 40.0679 23.9722 40.0768 23.9942C40.0858 24.0162 40.0902 24.0398 40.09 24.0636C40.0893 24.1105 40.0707 24.1553 40.038 24.1889C40.0048 24.2222 39.9597 24.2409 39.9126 24.2409C39.8893 24.2416 39.866 24.2374 39.8444 24.2284C39.8228 24.2194 39.8033 24.206 39.7873 24.1889C39.7707 24.1726 39.7575 24.1531 39.7486 24.1315C39.7396 24.11 39.7351 24.0869 39.7353 24.0636ZM39.0564 24.2042H38.8026V23.2321C38.8026 22.8714 38.668 22.6941 38.402 22.6941C38.3374 22.6932 38.2734 22.7067 38.2146 22.7337C38.1559 22.7606 38.104 22.8004 38.0626 22.85C37.9679 22.9614 37.9188 23.1044 37.9249 23.2504V24.2042H37.6681V21.7067H37.9249V22.798C37.9808 22.701 38.0623 22.6212 38.1604 22.5673C38.2586 22.5134 38.3696 22.4874 38.4815 22.4923C38.8607 22.4923 39.0503 22.7216 39.0503 23.1801L39.0564 24.2042ZM37.0473 24.1889C36.9711 24.2257 36.8872 24.2435 36.8027 24.2409C36.5121 24.2409 36.3654 24.0789 36.3654 23.7518V22.7369H36.0749V22.5168H36.3654V22.101L36.6192 22.0215V22.5168H37.0473V22.7369H36.6192V23.7059C36.6116 23.7926 36.6319 23.8793 36.6773 23.9535C36.7027 23.9789 36.7335 23.9984 36.7673 24.0105C36.8011 24.0227 36.8372 24.0272 36.873 24.0239C36.9356 24.0254 36.9969 24.0061 37.0473 23.9688V24.1889ZM35.2125 23.1893C35.2139 23.1243 35.2022 23.0596 35.1781 22.9992C35.1539 22.9388 35.1178 22.8839 35.0718 22.8378C35.028 22.7911 34.9749 22.7542 34.9159 22.7294C34.8569 22.7047 34.7933 22.6926 34.7293 22.6941C34.6525 22.6906 34.5759 22.7057 34.5061 22.7381C34.4364 22.7706 34.3755 22.8195 34.3287 22.8806C34.224 23.0317 34.1733 23.2137 34.185 23.3972C34.1767 23.5618 34.2265 23.7241 34.3257 23.8557C34.3684 23.9111 34.4237 23.9555 34.4869 23.9853C34.5502 24.015 34.6197 24.0293 34.6896 24.0269C34.7606 24.0289 34.8312 24.0152 34.8962 23.9866C34.9612 23.9581 35.0191 23.9155 35.0657 23.8618C35.1647 23.7463 35.217 23.5981 35.2125 23.4461V23.1893ZM35.4663 24.0728C35.4663 24.6842 35.1727 24.9899 34.5856 24.9899C34.3964 24.993 34.209 24.9522 34.0382 24.8706V24.6108C34.2042 24.7094 34.3926 24.7641 34.5856 24.7698C35.0046 24.7698 35.2125 24.5436 35.2125 24.0942V23.9077C35.1552 24.0111 35.0702 24.0965 34.967 24.1543C34.8638 24.2121 34.7466 24.2399 34.6284 24.2348C34.5325 24.2394 34.4368 24.2212 34.3491 24.1819C34.2614 24.1426 34.1843 24.0832 34.1239 24.0086C33.9864 23.8355 33.9178 23.6178 33.9312 23.3972C33.9183 23.1516 33.9919 22.9093 34.1391 22.7124C34.2071 22.6298 34.2933 22.5639 34.3909 22.5199C34.4884 22.4759 34.5948 22.455 34.7018 22.4587C34.8044 22.4528 34.9067 22.4757 34.9969 22.5249C35.0872 22.574 35.1618 22.6475 35.2125 22.7369V22.4984H35.4663V24.0728ZM33.2676 24.2042H33.0138V23.2413C33.0138 22.8744 32.8792 22.6941 32.6132 22.6941C32.5484 22.693 32.4842 22.7061 32.425 22.7325C32.3658 22.7589 32.3132 22.798 32.2707 22.8469C32.1791 22.9575 32.1313 23.0978 32.1362 23.2413V24.2042H31.8793V22.5168H32.1362V22.798C32.1918 22.7015 32.2728 22.622 32.3703 22.5681C32.4679 22.5142 32.5783 22.488 32.6897 22.4923C32.7696 22.4874 32.8497 22.5011 32.9235 22.5324C32.9972 22.5637 33.0627 22.6117 33.1147 22.6727C33.2221 22.8226 33.274 23.0053 33.2615 23.1893L33.2676 24.2042ZM30.9496 23.2107C30.958 23.0778 30.9178 22.9464 30.8365 22.8408C30.7983 22.7978 30.7511 22.7637 30.6983 22.741C30.6454 22.7183 30.5882 22.7075 30.5307 22.7094C30.4692 22.7085 30.4081 22.7202 30.3513 22.7439C30.2945 22.7675 30.2431 22.8026 30.2004 22.8469C30.104 22.9454 30.0436 23.0736 30.0292 23.2107H30.9496ZM31.2126 23.4369H30.017C30.0099 23.6002 30.0658 23.7599 30.1729 23.8832C30.2249 23.936 30.2875 23.9771 30.3566 24.004C30.4256 24.0308 30.4995 24.0428 30.5735 24.0391C30.7661 24.039 30.9524 23.9707 31.0995 23.8466V24.0911C30.9267 24.2081 30.7208 24.266 30.5124 24.2562C30.4081 24.262 30.3038 24.2442 30.2074 24.2039C30.111 24.1637 30.025 24.1021 29.9558 24.0239C29.8108 23.8402 29.7389 23.6093 29.754 23.3758C29.7449 23.1446 29.8236 22.9186 29.9741 22.743C30.0412 22.6623 30.1254 22.5977 30.2206 22.5538C30.3159 22.5099 30.4197 22.4879 30.5246 22.4893C30.6199 22.4844 30.715 22.5011 30.8029 22.5381C30.8908 22.5752 30.9692 22.6316 31.0322 22.7032C31.1601 22.8748 31.2239 23.0857 31.2126 23.2994V23.4369ZM29.3778 22.7888C29.3164 22.7511 29.2449 22.733 29.173 22.7369C29.1115 22.7346 29.0506 22.749 28.9968 22.7786C28.9429 22.8083 28.8981 22.8519 28.8672 22.905C28.7828 23.038 28.7422 23.1941 28.7509 23.3513V24.2165H28.4941V22.529H28.7509V22.8806C28.7821 22.7726 28.8424 22.6753 28.9253 22.5993C28.9986 22.5343 29.0933 22.4984 29.1913 22.4984C29.2474 22.4967 29.3033 22.505 29.3564 22.5229L29.3778 22.7888ZM27.8886 24.2012C27.8114 24.2382 27.7264 24.256 27.6409 24.2531C27.3504 24.2531 27.2067 24.0911 27.2067 23.764V22.7491H26.9009V22.529H27.2067V22.1132L27.4605 22.0338V22.529H27.8886V22.7491H27.4605V23.7182C27.4515 23.8049 27.4719 23.8921 27.5186 23.9658C27.5432 23.9915 27.5733 24.0111 27.6067 24.0233C27.6401 24.0355 27.6759 24.0399 27.7112 24.0361C27.7746 24.0366 27.8366 24.0173 27.8886 23.9811V24.2012ZM25.118 23.8068C25.2075 23.8796 25.3119 23.9318 25.4238 23.9597C25.5343 23.9965 25.6499 24.0161 25.7663 24.0178C26.1088 24.0178 26.2801 23.8924 26.2801 23.6448C26.281 23.577 26.263 23.5103 26.2281 23.4522C26.1907 23.3976 26.1429 23.3508 26.0874 23.3146C26.0293 23.2749 25.907 23.2107 25.7235 23.1159C25.5546 23.0404 25.3996 22.937 25.2648 22.8102C25.1779 22.7106 25.132 22.5817 25.1364 22.4495C25.1335 22.3594 25.1537 22.27 25.1949 22.1898C25.236 22.1096 25.297 22.0412 25.3719 21.991C25.543 21.8752 25.7463 21.8163 25.9529 21.8228C26.1235 21.8102 26.2947 21.8396 26.4513 21.9084V22.2141C26.2929 22.1128 26.1071 22.0627 25.9192 22.0704C25.7892 22.064 25.6602 22.097 25.5492 22.1652C25.5044 22.1939 25.4678 22.2339 25.4431 22.281C25.4185 22.3282 25.4065 22.381 25.4086 22.4342C25.4069 22.4807 25.4151 22.5271 25.4325 22.5702C25.4498 22.6134 25.4761 22.6525 25.5095 22.6849C25.6366 22.7862 25.7764 22.8705 25.9254 22.9356C26.1141 23.0155 26.2839 23.1342 26.4238 23.2841C26.5057 23.3842 26.551 23.5093 26.5522 23.6387C26.5569 23.7292 26.5393 23.8194 26.5009 23.9015C26.4625 23.9836 26.4045 24.055 26.3321 24.1095C26.15 24.2257 25.9362 24.2823 25.7205 24.2715C25.6174 24.2688 25.515 24.2555 25.4147 24.2317C25.319 24.2167 25.2268 24.1846 25.1425 24.137L25.118 23.8068ZM23.482 22.7888C23.4206 22.7511 23.3491 22.733 23.2771 22.7369C23.2159 22.7356 23.1554 22.7504 23.1017 22.7799C23.048 22.8094 23.003 22.8526 22.9713 22.905C22.8885 23.0387 22.8479 23.1942 22.8551 23.3513V24.2165H22.5983V22.529H22.8551V22.8806C22.8871 22.7722 22.9485 22.6749 23.0325 22.5993C23.1044 22.534 23.1983 22.498 23.2955 22.4984C23.3515 22.4967 23.4075 22.505 23.4606 22.5229L23.482 22.7888ZM21.8093 24.2165H21.5524V23.9505C21.5046 24.0463 21.4301 24.1261 21.3378 24.1804C21.2455 24.2346 21.1395 24.261 21.0326 24.2562C20.6289 24.2562 20.421 24.0178 20.421 23.5378V22.529H20.6564V23.495C20.6564 23.8588 20.7971 24.0391 21.0723 24.0391C21.1356 24.041 21.1984 24.0284 21.2562 24.0025C21.3139 23.9766 21.365 23.9379 21.4056 23.8894C21.4968 23.7811 21.5437 23.6425 21.5371 23.5011V22.529H21.794L21.8093 24.2165ZM18.3752 23.3819C18.3659 23.5557 18.4215 23.7267 18.5311 23.8618C18.5828 23.9206 18.6469 23.9671 18.7189 23.9978C18.7909 24.0284 18.8688 24.0426 18.947 24.0391C19.0244 24.0447 19.102 24.0321 19.1737 24.0024C19.2454 23.9727 19.3091 23.9266 19.3598 23.868C19.4649 23.7263 19.5159 23.5517 19.5036 23.3758C19.515 23.199 19.4642 23.0238 19.3598 22.8806C19.3093 22.8215 19.2456 22.775 19.174 22.7448C19.1023 22.7145 19.0246 22.7014 18.947 22.7063C18.8681 22.7032 18.7896 22.7178 18.7171 22.749C18.6446 22.7802 18.58 22.8273 18.5281 22.8867C18.4163 23.0226 18.3567 23.1938 18.3599 23.3697L18.3752 23.3819ZM18.1152 23.3819C18.1007 23.1391 18.1832 22.9005 18.3446 22.7185C18.4245 22.6385 18.5201 22.5758 18.6253 22.5343C18.7305 22.4927 18.8431 22.4733 18.9562 22.477C19.0645 22.4718 19.1727 22.4898 19.2734 22.5299C19.3742 22.5699 19.4652 22.6311 19.5403 22.7094C19.6924 22.8898 19.769 23.1219 19.7543 23.3574C19.7632 23.5944 19.6799 23.8256 19.5219 24.0025C19.4432 24.0842 19.3479 24.148 19.2424 24.1897C19.1369 24.2313 19.0236 24.2498 18.9103 24.244C18.8009 24.2483 18.6918 24.2296 18.5901 24.1891C18.4885 24.1485 18.3965 24.087 18.3201 24.0086C18.1671 23.8368 18.088 23.6116 18.0999 23.3819H18.1152ZM15.2866 23.8618C15.4268 23.9672 15.5974 24.0241 15.7728 24.0239C16.0113 24.0239 16.1306 23.9444 16.1306 23.7824C16.1319 23.7499 16.1257 23.7175 16.1124 23.6878C16.0992 23.6581 16.0792 23.6319 16.0541 23.6112C15.9606 23.5441 15.8575 23.4916 15.7483 23.4553C15.6134 23.4107 15.4901 23.3365 15.3875 23.2382C15.3526 23.1924 15.3272 23.14 15.3129 23.0841C15.2986 23.0283 15.2956 22.9701 15.3041 22.9131C15.3127 22.8561 15.3326 22.8014 15.3627 22.7522C15.3927 22.7031 15.4324 22.6604 15.4792 22.6268C15.6122 22.5329 15.7721 22.4846 15.9349 22.4893C16.0683 22.4868 16.2007 22.5128 16.3232 22.5657V22.8316C16.1961 22.7488 16.0469 22.7062 15.8951 22.7094C15.8069 22.7037 15.7195 22.7285 15.6474 22.7797C15.6199 22.7996 15.5974 22.8258 15.582 22.8561C15.5666 22.8864 15.5586 22.9199 15.5587 22.9539C15.5568 22.9854 15.5614 23.0169 15.5725 23.0464C15.5836 23.0759 15.6008 23.1027 15.623 23.1251C15.7124 23.1875 15.8102 23.2369 15.9135 23.2718C16.0605 23.3178 16.1953 23.3962 16.308 23.5011C16.3692 23.5772 16.4017 23.6725 16.3997 23.7701C16.4019 23.8403 16.3858 23.9099 16.3532 23.972C16.3205 24.0341 16.2722 24.0868 16.2132 24.1247C16.0732 24.2179 15.9071 24.264 15.7392 24.2562C15.5842 24.2608 15.4306 24.2261 15.2927 24.1553L15.2866 23.8618ZM14.3264 24.2042V22.5168H14.5802V24.2042H14.3264ZM14.2897 21.9084C14.2896 21.8863 14.2939 21.8644 14.3023 21.8439C14.3107 21.8235 14.323 21.8049 14.3386 21.7892C14.3541 21.7733 14.3726 21.7608 14.3932 21.7524C14.4137 21.744 14.4357 21.7399 14.4579 21.7403C14.4801 21.7395 14.5022 21.7434 14.5228 21.7519C14.5434 21.7603 14.5619 21.773 14.5771 21.7892C14.593 21.8047 14.6055 21.8232 14.614 21.8437C14.6224 21.8643 14.6265 21.8863 14.6261 21.9084C14.6267 21.9311 14.6227 21.9536 14.6143 21.9747C14.6059 21.9957 14.5932 22.0148 14.5771 22.0307C14.5613 22.0459 14.5426 22.0578 14.5221 22.0656C14.5016 22.0735 14.4798 22.0772 14.4579 22.0766C14.4356 22.0774 14.4133 22.0737 14.3925 22.0655C14.3717 22.0574 14.3528 22.045 14.337 22.0292C14.3212 22.0134 14.3089 21.9946 14.3007 21.9738C14.2926 21.953 14.2888 21.9307 14.2897 21.9084ZM12.62 22.5198L11.8372 24.4885C11.6996 24.8309 11.5069 25.0021 11.2623 25.0021C11.2067 25.0024 11.1513 24.9962 11.0971 24.9838V24.7392C11.1462 24.7569 11.1979 24.7662 11.25 24.7667C11.3207 24.7632 11.3884 24.7373 11.4434 24.6928C11.4984 24.6483 11.5377 24.5875 11.5558 24.5191L11.6934 24.192L11.036 22.5076H11.3204L11.7882 23.8221L11.8249 23.9413L11.8586 23.8252L12.3479 22.5045L12.62 22.5198ZM10.669 24.192C10.5928 24.2287 10.5089 24.2466 10.4244 24.244C10.1186 24.244 9.98708 24.0819 9.98708 23.7548V22.7399H9.69657V22.5198H9.98708V22.1041L10.2409 22.0246V22.5198H10.669V22.7399H10.2409V23.709C10.2326 23.7961 10.2541 23.8834 10.3021 23.9566C10.3266 23.9823 10.3568 24.002 10.3902 24.0142C10.4236 24.0264 10.4594 24.0307 10.4947 24.0269C10.5573 24.0285 10.6187 24.0091 10.669 23.9719V24.192ZM8.83421 24.2073V22.5198H9.08803V24.2073H8.83421ZM8.79752 21.9115C8.79743 21.8894 8.80171 21.8675 8.8101 21.847C8.8185 21.8265 8.83085 21.8079 8.84645 21.7923C8.86134 21.7765 8.87937 21.764 8.89938 21.7555C8.91939 21.7471 8.94094 21.743 8.96265 21.7434C8.9853 21.7427 9.00786 21.7467 9.0289 21.7551C9.04994 21.7635 9.06903 21.7762 9.08497 21.7923C9.10085 21.8077 9.11338 21.8263 9.1218 21.8468C9.13021 21.8673 9.13433 21.8893 9.1339 21.9115C9.13457 21.9341 9.13058 21.9567 9.12216 21.9777C9.11374 21.9988 9.10108 22.0178 9.08497 22.0338C9.05168 22.0643 9.00782 22.0808 8.96265 22.0796C8.9194 22.0801 8.87768 22.0637 8.84645 22.0338C8.82802 22.0183 8.81306 21.9992 8.80252 21.9776C8.79198 21.956 8.78611 21.9324 8.78528 21.9084L8.79752 21.9115ZM7.76697 24.2073V21.7097H8.02078V24.2073H7.76697ZM6.32665 23.4064C6.21831 23.4114 6.11304 23.444 6.02085 23.5011C5.9883 23.532 5.96294 23.5696 5.94656 23.6113C5.93017 23.6531 5.92318 23.6979 5.92606 23.7426C5.9246 23.7819 5.9321 23.8211 5.94799 23.8571C5.96388 23.8931 5.98776 23.9251 6.0178 23.9505C6.08507 24.005 6.16981 24.0332 6.25632 24.03C6.31968 24.0313 6.38257 24.0189 6.44065 23.9936C6.49873 23.9683 6.55061 23.9306 6.5927 23.8832C6.68292 23.7852 6.73121 23.6557 6.72725 23.5225V23.3513L6.32665 23.4064ZM5.84043 22.6391C6.01081 22.5325 6.20829 22.4773 6.40922 22.4801C6.80064 22.4801 6.99636 22.6839 6.99636 23.0915V24.1951H6.73949V23.9291C6.6916 24.0241 6.61746 24.1034 6.52587 24.1576C6.43427 24.2118 6.32905 24.2386 6.22268 24.2348C6.07926 24.2426 5.93823 24.1956 5.8282 24.1033C5.7794 24.0585 5.74098 24.0035 5.71563 23.9422C5.69028 23.881 5.6786 23.815 5.68142 23.7487C5.68142 23.443 5.86796 23.2535 6.23797 23.2015L6.74866 23.1282C6.74866 22.8225 6.63245 22.688 6.39699 22.688C6.19447 22.6869 5.99899 22.7622 5.84961 22.8989L5.84043 22.6391ZM4.99337 24.2073H4.7365V23.9413C4.6887 24.0371 4.61415 24.1169 4.52188 24.1712C4.42961 24.2254 4.32358 24.2518 4.21664 24.247C3.81298 24.247 3.60504 24.0086 3.60504 23.5286V22.5198H3.83744V23.4858C3.83744 23.8496 3.97506 24.03 4.25028 24.03C4.31354 24.0318 4.3764 24.0193 4.43414 23.9933C4.49187 23.9674 4.54297 23.9287 4.5836 23.8802C4.67471 23.7719 4.72166 23.6333 4.71509 23.492V22.5198H4.97196L4.99337 24.2073ZM0.993505 23.0303C0.983657 23.285 1.06377 23.535 1.2198 23.7365C1.29319 23.8269 1.38673 23.8989 1.49293 23.9466C1.59913 23.9944 1.71505 24.0167 1.8314 24.0116C1.94872 24.0183 2.06605 23.9985 2.1746 23.9535C2.28316 23.9085 2.38014 23.8395 2.45829 23.7518C2.62012 23.5486 2.70075 23.2926 2.68458 23.0334C2.70056 22.7728 2.62364 22.5151 2.46746 22.3058C2.39238 22.2182 2.29822 22.149 2.1922 22.1034C2.08618 22.0578 1.97112 22.0371 1.85586 22.0429C1.73946 22.0397 1.62384 22.0631 1.51785 22.1113C1.41185 22.1595 1.31828 22.2312 1.24426 22.3211C1.0736 22.5167 0.980101 22.7678 0.981275 23.0273L0.993505 23.0303ZM0.721344 23.0548C0.70305 22.7214 0.812384 22.3935 1.02714 22.1377C1.13371 22.0236 1.26389 21.9342 1.40861 21.8756C1.55332 21.817 1.70909 21.7906 1.86504 21.7984C2.01249 21.7927 2.15937 21.8196 2.29522 21.8772C2.43106 21.9348 2.55253 22.0217 2.65094 22.1316C2.8591 22.367 2.96861 22.6735 2.95674 22.9875C2.95939 23.1974 2.91879 23.4055 2.83748 23.5989C2.76418 23.7708 2.64715 23.9204 2.49804 24.033L3.16162 24.5069H2.6754L2.22282 24.1675C2.09642 24.2086 1.96429 24.2292 1.8314 24.2287C1.68165 24.2347 1.53238 24.208 1.394 24.1505C1.25563 24.0929 1.13148 24.0059 1.0302 23.8955C0.819444 23.6655 0.704578 23.3636 0.709114 23.0517L0.721344 23.0548Z" fill="#110A00"/>
<path d="M86.0761 5.3955V3.39929H86.6877L87.0455 4.75965L87.4002 3.39929H88.0118V5.3955H87.6265V3.82421L87.2321 5.3955H86.8437L86.4523 3.82421V5.3955H86.0761ZM84.8285 5.3955V3.73556H84.2383V3.39929H85.8193V3.73556H85.2321V5.3955H84.8285Z" fill="#110A00"/>
</g>
<defs>
<clipPath id="clip0_745_1091">
<rect width="88" height="25" fill="white"/>
</clipPath>
</defs>
</svg>
