<svg width="50" height="30" viewBox="0 0 50 30" fill="none" xmlns="http://www.w3.org/2000/svg">
<rect x="0.5" y="0.5" width="49" height="29" rx="14.5" stroke="white" stroke-opacity="0.3"/>
<path d="M32.3172 15.4422L26.6922 21.0672C26.5749 21.1844 26.4159 21.2503 26.25 21.2503C26.0841 21.2503 25.9251 21.1844 25.8078 21.0672C25.6905 20.9499 25.6247 20.7908 25.6247 20.625C25.6247 20.4591 25.6905 20.3001 25.8078 20.1828L30.3664 15.625H18.125C17.9592 15.625 17.8003 15.5591 17.6831 15.4419C17.5658 15.3247 17.5 15.1657 17.5 15C17.5 14.8342 17.5658 14.6752 17.6831 14.558C17.8003 14.4408 17.9592 14.375 18.125 14.375H30.3664L25.8078 9.81717C25.6905 9.69989 25.6247 9.54083 25.6247 9.37498C25.6247 9.20913 25.6905 9.05007 25.8078 8.93279C25.9251 8.81552 26.0841 8.74963 26.25 8.74963C26.4159 8.74963 26.5749 8.81552 26.6922 8.93279L32.3172 14.5578C32.3753 14.6158 32.4214 14.6848 32.4529 14.7606C32.4843 14.8365 32.5005 14.9178 32.5005 15C32.5005 15.0821 32.4843 15.1634 32.4529 15.2393C32.4214 15.3152 32.3753 15.3841 32.3172 15.4422Z" fill="#8FE0E0"/>
</svg>
