<svg width="50" height="50" viewBox="0 0 50 50" fill="none" xmlns="http://www.w3.org/2000/svg">
<g clip-path="url(#clip0_286_350)">
<path d="M44.6287 1.20923e-05C44.6287 4.12501 44.6287 8.25001 44.6287 12.5C40.9362 12.5 40.9362 12.5 40.0938 11.6882C39.529 11.0189 39.5111 10.2545 39.5323 9.42384C39.5336 9.32489 39.535 9.22595 39.5363 9.124C39.5397 8.8821 39.5445 8.6403 39.5506 8.39845C37.3546 8.40208 35.1586 8.40792 32.9625 8.41641C31.9429 8.4203 30.9233 8.42346 29.9037 8.42491C29.0151 8.42618 28.1266 8.42881 27.238 8.43308C26.7674 8.43529 26.2968 8.43682 25.8262 8.43672C25.3834 8.43665 24.9407 8.43839 24.4979 8.44153C24.3352 8.44237 24.1725 8.44253 24.0099 8.44198C23.788 8.44134 23.5663 8.44308 23.3444 8.44542C23.2202 8.44578 23.096 8.44614 22.968 8.44651C22.6006 8.50493 22.4842 8.5907 22.2655 8.88673C22.203 9.188 22.203 9.188 22.206 9.52302C22.2028 9.64513 22.1997 9.76724 22.1964 9.89305C22.195 10.0202 22.1936 10.1473 22.1922 10.2783C22.1893 10.407 22.1864 10.5356 22.1834 10.6682C22.1765 10.9858 22.1714 11.3034 22.1678 11.6211C22.2283 11.6191 22.2888 11.617 22.3511 11.6149C22.6297 11.6067 22.9084 11.6017 23.1871 11.5967C23.2822 11.5934 23.3773 11.5901 23.4753 11.5868C24.2614 11.5763 24.8054 11.7637 25.4637 12.1826C25.9629 12.6818 26.2678 13.2086 26.2708 13.9199C26.267 14.0575 26.2631 14.195 26.2591 14.3326C26.2567 14.5621 26.2554 14.7916 26.2541 15.0211C26.2521 15.1789 26.2482 15.3367 26.2423 15.4944C26.224 16.0154 26.2304 16.4865 26.367 16.9922C26.7096 17.3579 27.0947 17.5512 27.5389 17.7735C27.7742 17.9515 27.9858 18.1486 28.1981 18.3533C28.2511 18.4036 28.3042 18.4539 28.3588 18.5058C30.5116 20.5694 31.8925 23.3727 32.1287 26.3672C32.1305 26.5353 32.1304 26.7034 32.1287 26.8715C32.0783 27.8175 32.0783 27.8175 32.411 28.6575C32.6379 28.8008 32.6379 28.8008 32.8814 28.9024C33.3254 29.1036 33.5282 29.5153 33.6951 29.9549C33.85 30.4811 33.8249 31.0041 33.8255 31.5491C33.8279 31.6635 33.8303 31.7778 33.8328 31.8956C33.8331 32.006 33.8335 32.1163 33.8339 32.23C33.8347 32.3301 33.8355 32.4302 33.8363 32.5333C33.7764 32.8862 33.6474 33.0481 33.3983 33.3008C33.1168 33.3946 32.9405 33.4109 32.6482 33.4113C32.5064 33.4118 32.5064 33.4118 32.3618 33.4124C32.2577 33.4123 32.1536 33.4123 32.0464 33.4122C31.936 33.4125 31.8257 33.4127 31.712 33.413C31.3402 33.4139 30.9684 33.414 30.5966 33.4142C30.3309 33.4146 30.0651 33.4151 29.7993 33.4157C29.076 33.417 28.3527 33.4176 27.6293 33.418C27.1778 33.4183 26.7263 33.4187 26.2748 33.4191C25.0251 33.4203 23.7753 33.4213 22.5256 33.4216C22.4056 33.4217 22.4056 33.4217 22.2832 33.4217C22.1629 33.4217 22.1629 33.4217 22.0402 33.4218C21.8777 33.4218 21.7152 33.4219 21.5527 33.4219C21.4318 33.4219 21.4318 33.4219 21.3084 33.422C20.0019 33.4224 18.6954 33.4241 17.3888 33.4263C16.0479 33.4287 14.707 33.4299 13.3661 33.43C12.613 33.4301 11.86 33.4306 11.1069 33.4324C10.4657 33.4339 9.82459 33.4344 9.18343 33.4336C8.85623 33.4332 8.52906 33.4335 8.20186 33.4347C7.8473 33.4359 7.49279 33.4354 7.13823 33.4343C7.0346 33.4351 6.93097 33.4359 6.82419 33.4367C5.94368 33.4308 5.94368 33.4308 5.56625 33.1055C5.25949 32.6453 5.33888 32.1634 5.34042 31.6223C5.33884 31.5138 5.33727 31.4052 5.33565 31.2933C5.3351 30.3597 5.51281 29.6137 6.15218 28.9063C6.65299 28.5156 6.65299 28.5156 7.03109 28.5156C7.02769 28.3891 7.02429 28.2626 7.02079 28.1323C6.95576 24.6501 8.00928 21.4858 10.4491 18.9453C10.5314 18.8568 10.6137 18.7683 10.6985 18.6772C10.7854 18.5864 10.8723 18.4956 10.9618 18.4021C11.0773 18.2811 11.0773 18.2811 11.1952 18.1576C11.399 17.956 11.5814 17.8399 11.8376 17.7024C12.4656 17.3731 12.4656 17.3731 12.8608 16.8127C12.957 16.3064 12.9238 15.795 12.8966 15.2832C12.8867 14.9811 12.8803 14.6791 12.8756 14.3768C12.8742 14.3053 12.8727 14.2338 12.8712 14.1601C12.8683 13.4446 13.0552 12.9714 13.5008 12.4268C14.0727 11.9589 14.5862 11.6072 15.3422 11.6116C15.4382 11.6119 15.5341 11.6122 15.633 11.6125C15.7831 11.6137 15.7831 11.6137 15.9361 11.615C16.0373 11.6154 16.1384 11.6159 16.2426 11.6163C16.4924 11.6175 16.7422 11.6191 16.992 11.6211C16.991 11.5 16.99 11.379 16.9889 11.2542C16.9854 10.7999 16.9831 10.3457 16.9813 9.89138C16.9803 9.69571 16.979 9.50005 16.9773 9.30439C16.9623 7.53132 16.9626 5.84625 18.2188 4.44948C19.0422 3.69888 20.0834 3.30431 21.1836 3.30858C21.2621 3.3085 21.3406 3.30841 21.4215 3.30833C21.6848 3.30817 21.9481 3.3087 22.2114 3.30924C22.4 3.30927 22.5887 3.30925 22.7773 3.3092C23.2897 3.30917 23.8022 3.30974 24.3147 3.31042C24.8501 3.31103 25.3855 3.31109 25.9209 3.31121C26.9349 3.31151 27.949 3.31231 28.963 3.31329C30.1174 3.31438 31.2718 3.31492 32.4262 3.31541C34.801 3.31643 37.1758 3.31815 39.5506 3.32032C39.5488 3.17972 39.5488 3.17972 39.547 3.03627C39.546 2.91324 39.5451 2.7902 39.5441 2.66343C39.5423 2.48053 39.5423 2.48053 39.5405 2.29393C39.5622 1.56423 39.8443 1.12337 40.3021 0.572217C41.5898 -0.466626 42.9475 1.20923e-05 44.6287 1.20923e-05ZM41.4894 1.95304C41.2641 2.31799 41.2396 2.61217 41.2453 3.02888C41.2444 3.10627 41.2435 3.18367 41.2427 3.2634C41.2405 3.51843 41.2419 3.7733 41.2436 4.02833C41.2433 4.206 41.2428 4.38367 41.2422 4.56134C41.2415 4.93339 41.2425 5.30538 41.2448 5.67743C41.2476 6.15395 41.246 6.63033 41.243 7.10685C41.2413 7.47363 41.2418 7.84039 41.2431 8.20718C41.2434 8.38285 41.243 8.55853 41.2419 8.7342C41.2406 8.97993 41.2425 9.22543 41.2453 9.47114C41.2443 9.5435 41.2433 9.61586 41.2423 9.6904C41.2494 10.0403 41.3049 10.2481 41.4894 10.547C41.8872 10.8382 41.8872 10.8382 42.8709 10.7422C42.8709 7.77736 42.8709 4.81251 42.8709 1.75782C41.8872 1.66183 41.8872 1.66183 41.4894 1.95304ZM19.1733 6.16113C18.6934 6.84727 18.7356 7.67792 18.7403 8.48352C18.7404 8.57359 18.7406 8.66366 18.7407 8.75646C18.7413 9.04199 18.7425 9.32752 18.7437 9.61305C18.7442 9.80754 18.7447 10.002 18.7451 10.1965C18.7461 10.6714 18.7478 11.1462 18.7498 11.6211C19.2977 11.6211 19.8455 11.6211 20.41 11.6211C20.4114 11.4068 20.4128 11.1926 20.4142 10.9718C20.4172 10.7611 20.421 10.5504 20.4249 10.3396C20.4271 10.1947 20.4286 10.0498 20.4291 9.90492C20.4332 8.95907 20.4769 8.10953 21.1333 7.3634C21.688 6.85771 22.2741 6.70194 23.0039 6.69936C23.1106 6.69838 23.1106 6.69838 23.2195 6.69739C23.4563 6.69558 23.693 6.69582 23.9298 6.69607C24.1002 6.69519 24.2706 6.69418 24.441 6.69305C24.9024 6.69036 25.3638 6.68945 25.8252 6.68887C26.3078 6.68795 26.7904 6.68539 27.273 6.68301C28.1864 6.67875 29.0998 6.67596 30.0132 6.6737C31.0533 6.67106 32.0934 6.66677 33.1335 6.66234C35.2725 6.65328 37.4116 6.64634 39.5506 6.64064C39.5506 6.12501 39.5506 5.60939 39.5506 5.07814C37.1101 5.06683 34.6695 5.05812 32.2289 5.05284C31.0957 5.05032 29.9625 5.04689 28.8292 5.0413C27.8413 5.03643 26.8534 5.03328 25.8655 5.0322C25.3426 5.03156 24.8197 5.03007 24.2967 5.02651C23.8041 5.02319 23.3115 5.02218 22.8188 5.02291C22.6385 5.02277 22.4581 5.02181 22.2777 5.01993C20.9955 5.00724 20.0238 5.09295 19.1733 6.16113ZM14.8436 13.5742C14.2827 14.4156 14.6483 15.5904 14.6483 16.6016C17.9032 16.6016 21.158 16.6016 24.5116 16.6016C24.5116 15.6992 24.5116 14.7969 24.5116 13.8672C24.0558 13.4114 23.9704 13.3681 23.3541 13.3646C23.2741 13.3646 23.1942 13.3647 23.1118 13.3647C23.0276 13.3644 22.9435 13.3641 22.8567 13.3637C22.5775 13.3628 22.2983 13.3626 22.019 13.3625C21.8254 13.3622 21.6317 13.3619 21.4381 13.3615C21.0317 13.3609 20.6253 13.3608 20.219 13.3608C19.6979 13.3608 19.1769 13.3595 18.6558 13.3578C18.2557 13.3567 17.8556 13.3565 17.4555 13.3566C17.2634 13.3565 17.0713 13.356 16.8792 13.3553C16.6105 13.3543 16.3419 13.3546 16.0733 13.3552C15.9937 13.3546 15.9142 13.3541 15.8322 13.3535C15.3053 13.3516 15.3053 13.3516 14.8436 13.5742ZM12.5975 19.336C12.4579 19.4489 12.3178 19.561 12.1764 19.6716C10.1578 21.5184 8.95494 24.2444 8.7889 26.9531C8.7889 27.4043 8.7889 27.8555 8.7889 28.3203C15.911 28.3203 23.033 28.3203 30.3709 28.3203C30.3709 25.0253 29.5563 22.3095 27.2703 19.9036C26.6345 19.2859 25.6748 18.3545 24.7545 18.3411C24.6153 18.3388 24.6153 18.3388 24.4733 18.3364C24.3712 18.3352 24.269 18.334 24.1638 18.3328C24.0564 18.3312 23.949 18.3296 23.8384 18.328C22.8447 18.3143 21.8509 18.3065 20.8571 18.3008C20.1237 18.2964 19.3905 18.2889 18.6571 18.2772C18.0777 18.2682 17.4984 18.2647 16.9189 18.2629C16.6736 18.2614 16.4283 18.2581 16.1831 18.2532C14.692 18.2242 13.6921 18.2696 12.5975 19.336ZM7.2264 30.4688C7.05596 30.7733 7.05596 30.7733 7.12875 31.6406C15.3465 31.6406 23.5643 31.6406 32.0311 31.6406C32.123 30.6604 32.123 30.6604 31.8472 30.259C31.418 30.004 31.0697 30.0106 30.5784 30.0168C30.4806 30.0161 30.3827 30.0154 30.2819 30.0147C29.9537 30.013 29.6255 30.0147 29.2973 30.0165C29.0621 30.016 28.8269 30.0153 28.5918 30.0144C28.0192 30.0128 27.4466 30.0134 26.874 30.0152C26.4087 30.0166 25.9434 30.0169 25.478 30.0166C25.4118 30.0166 25.3456 30.0165 25.2774 30.0165C25.1428 30.0164 25.0083 30.0163 24.8738 30.0161C23.6843 30.0153 22.4947 30.0169 21.3052 30.0198C20.1508 30.0227 18.9963 30.0234 17.8419 30.0218C16.5848 30.0202 15.3278 30.0198 14.0707 30.0215C13.9367 30.0217 13.8027 30.0219 13.6687 30.0221C13.6028 30.0222 13.5369 30.0222 13.4689 30.0223C13.0041 30.0229 12.5392 30.0226 12.0744 30.0219C11.4489 30.0211 10.8235 30.0223 10.198 30.025C9.96811 30.0257 9.7382 30.0257 9.50829 30.025C9.19517 30.0242 8.88215 30.0257 8.56903 30.0279C8.47741 30.0271 8.38579 30.0263 8.29139 30.0254C7.80436 30.0317 7.52443 30.0396 7.2264 30.4688Z" fill="#C59B5F"/>
<path d="M29.8826 38.2813C30.1463 38.457 30.3261 38.5824 30.4685 38.8672C30.4794 39.1546 30.4846 39.4396 30.4849 39.727C30.4853 39.8125 30.4856 39.898 30.4859 39.9861C30.4864 40.1672 30.4866 40.3483 30.4866 40.5294C30.4868 40.8063 30.4886 41.0832 30.4905 41.3601C30.4908 41.536 30.4909 41.7118 30.491 41.8877C30.4917 41.9705 30.4924 42.0533 30.4932 42.1386C30.4929 42.2162 30.4926 42.2937 30.4923 42.3736C30.4924 42.4416 30.4925 42.5095 30.4927 42.5795C30.4635 42.8135 30.3984 42.9645 30.2732 43.1641C29.9638 43.3703 29.772 43.3918 29.4073 43.4139C29.064 43.324 28.9287 43.147 28.7107 42.8711C28.6403 42.5686 28.6445 42.2742 28.6493 41.9647C28.6491 41.8777 28.6488 41.7907 28.6486 41.701C28.6487 41.5175 28.65 41.334 28.6524 41.1504C28.6558 40.87 28.6544 40.5899 28.6525 40.3095C28.6532 40.1309 28.6542 39.9522 28.6554 39.7736C28.6549 39.69 28.6544 39.6065 28.6539 39.5205C28.6618 39.122 28.6794 38.9167 28.8973 38.5725C29.2238 38.2627 29.4364 38.2375 29.8826 38.2813Z" fill="#C59B5F"/>
<path d="M26.7576 41.6992C27.01 41.8843 27.047 41.9813 27.1483 42.2852C27.1589 42.5604 27.1643 42.8331 27.1647 43.1084C27.165 43.1892 27.1653 43.27 27.1656 43.3532C27.1661 43.5241 27.1664 43.695 27.1663 43.8659C27.1666 44.1268 27.1683 44.3875 27.1702 44.6484C27.1705 44.8146 27.1707 44.9808 27.1708 45.147C27.1715 45.2247 27.1722 45.3024 27.1729 45.3825C27.1712 45.7893 27.1579 46.1208 26.9529 46.4844C26.6435 46.6906 26.4518 46.7121 26.087 46.7342C25.7427 46.6441 25.6085 46.4689 25.3904 46.1914C25.3197 45.8808 25.3242 45.5778 25.329 45.2602C25.3288 45.1708 25.3286 45.0814 25.3283 44.9893C25.3284 44.8007 25.3297 44.6122 25.3321 44.4237C25.3355 44.1351 25.3342 43.8469 25.3323 43.5583C25.3329 43.3749 25.3339 43.1915 25.3351 43.0081C25.3346 42.9219 25.3342 42.8357 25.3337 42.7469C25.3451 42.1518 25.3451 42.1518 25.5709 41.8433C25.9851 41.5594 26.2796 41.5968 26.7576 41.6992Z" fill="#C59B5F"/>
<path d="M26.2207 34.906C26.6136 34.9692 26.7757 35.0684 27.0508 35.3516C27.1752 35.7249 27.1662 36.0785 27.1682 36.4677C27.1688 36.5485 27.1694 36.6293 27.1699 36.7126C27.1709 36.8835 27.1715 37.0544 27.1719 37.2253C27.1728 37.4861 27.1758 37.7469 27.1789 38.0077C27.1796 38.1739 27.1801 38.3401 27.1805 38.5063C27.1817 38.5841 27.1829 38.6618 27.1841 38.7419C27.1823 39.1898 27.1462 39.4807 26.8554 39.8438C26.4892 40.0879 26.3126 40.0914 25.8789 40.0391C25.6071 39.8433 25.4219 39.6875 25.345 39.3514C25.3259 39.1073 25.3229 38.8679 25.3257 38.623C25.3253 38.5339 25.3248 38.4447 25.3243 38.3528C25.324 38.1646 25.3249 37.9765 25.3269 37.7884C25.3296 37.5009 25.327 37.2138 25.3238 36.9263C25.3242 36.7432 25.3248 36.5601 25.3257 36.377C25.3248 36.2913 25.3238 36.2056 25.3228 36.1174C25.331 35.6873 25.3498 35.5029 25.6174 35.1505C25.8789 34.9609 25.8789 34.9609 26.2207 34.906Z" fill="#C59B5F"/>
<path d="M19.5801 34.8999C20.0061 34.976 20.145 35.1139 20.4101 35.4492C20.5301 35.8091 20.5255 36.1443 20.5276 36.5192C20.5282 36.5955 20.5287 36.6717 20.5293 36.7502C20.5302 36.9115 20.5309 37.0728 20.5312 37.2341C20.5322 37.4798 20.5352 37.7253 20.5383 37.9709C20.5389 38.1279 20.5395 38.2849 20.5398 38.4418C20.541 38.5148 20.5422 38.5878 20.5435 38.6629C20.5415 39.1296 20.467 39.45 20.2148 39.8438C19.8486 40.0879 19.672 40.0914 19.2383 40.0391C18.9664 39.8433 18.7813 39.6875 18.7044 39.3514C18.6853 39.1073 18.6823 38.8679 18.6851 38.623C18.6847 38.5339 18.6842 38.4447 18.6837 38.3528C18.6834 38.1646 18.6843 37.9765 18.6863 37.7884C18.6889 37.5009 18.6863 37.2138 18.6832 36.9263C18.6835 36.7432 18.6842 36.5601 18.6851 36.377C18.6841 36.2913 18.6831 36.2056 18.6821 36.1174C18.6903 35.6874 18.709 35.503 18.9768 35.1509C19.2383 34.9609 19.2383 34.9609 19.5801 34.8999Z" fill="#C59B5F"/>
<path d="M13.2813 34.9609C13.5531 35.1567 13.7383 35.3124 13.8152 35.6485C13.8343 35.8926 13.8373 36.1321 13.8344 36.3769C13.8349 36.4661 13.8354 36.5553 13.8358 36.6472C13.8362 36.8353 13.8353 37.0235 13.8332 37.2116C13.8306 37.4991 13.8332 37.7862 13.8363 38.0737C13.836 38.2568 13.8354 38.4399 13.8344 38.623C13.8354 38.7087 13.8364 38.7944 13.8374 38.8826C13.8292 39.3127 13.8104 39.4971 13.5428 39.8495C13.2813 40.039 13.2813 40.039 12.9395 40.094C12.5466 40.0308 12.3845 39.9316 12.1094 39.6484C11.985 39.275 11.994 38.9215 11.9919 38.5322C11.9914 38.4514 11.9908 38.3706 11.9902 38.2874C11.9893 38.1165 11.9887 37.9456 11.9883 37.7747C11.9874 37.5138 11.9843 37.2531 11.9813 36.9922C11.9806 36.826 11.9801 36.6599 11.9797 36.4937C11.9785 36.4159 11.9773 36.3382 11.9761 36.2581C11.9779 35.8102 12.014 35.5193 12.3047 35.1562C12.671 34.9121 12.8476 34.9086 13.2813 34.9609Z" fill="#C59B5F"/>
<path d="M10.0586 38.3788C10.2719 38.5221 10.2719 38.5221 10.4493 38.7694C10.5086 39.0752 10.5063 39.3769 10.5046 39.6876C10.5055 39.8216 10.5055 39.8216 10.5064 39.9583C10.5071 40.147 10.5068 40.3357 10.5056 40.5245C10.5042 40.8128 10.5075 41.1008 10.5113 41.3892C10.5114 41.5727 10.5112 41.7563 10.5107 41.9398C10.512 42.0258 10.5133 42.1118 10.5146 42.2003C10.508 42.6374 10.4931 42.8154 10.2141 43.1695C9.82568 43.4607 9.65505 43.4272 9.17974 43.3593C8.88984 43.1437 8.80585 43.0188 8.69146 42.6757C8.67963 42.4005 8.67308 42.1278 8.67162 41.8525C8.67107 41.7717 8.67051 41.6909 8.66994 41.6076C8.66901 41.4367 8.66838 41.2658 8.668 41.0949C8.66705 40.8341 8.66402 40.5733 8.66094 40.3125C8.6603 40.1463 8.65979 39.9801 8.65942 39.8139C8.65821 39.7362 8.657 39.6584 8.65576 39.5783C8.65756 39.1289 8.6982 38.8444 8.98443 38.4765C9.33155 38.2037 9.64721 38.2759 10.0586 38.3788Z" fill="#C59B5F"/>
<path d="M23.4375 38.3788C23.7515 38.6827 23.8246 38.9767 23.8423 39.4106C23.8436 39.5547 23.8443 39.6988 23.8445 39.8429C23.8448 39.9193 23.8451 39.9958 23.8455 40.0746C23.846 40.2363 23.8462 40.398 23.8462 40.5597C23.8464 40.8064 23.8482 41.053 23.85 41.2997C23.8503 41.457 23.8505 41.6143 23.8506 41.7716C23.8513 41.845 23.852 41.9185 23.8527 41.9942C23.8506 42.4889 23.8126 42.8732 23.468 43.2433C23.1403 43.4116 22.9218 43.4102 22.5586 43.3593C22.2867 43.1632 22.101 43.0077 22.0253 42.671C22.0072 42.4259 22.0052 42.1855 22.0089 41.9398C22.0086 41.8504 22.0084 41.761 22.0081 41.6688C22.0082 41.4803 22.0095 41.2917 22.012 41.1032C22.0153 40.8147 22.014 40.5264 22.0121 40.2379C22.0128 40.0545 22.0137 39.871 22.015 39.6876C22.0145 39.6014 22.014 39.5153 22.0135 39.4265C22.025 38.8293 22.025 38.8293 22.2568 38.5228C22.6532 38.2431 22.975 38.2546 23.4375 38.3788Z" fill="#C59B5F"/>
<path d="M16.6993 38.3789C16.9125 38.5222 16.9125 38.5222 17.0899 38.7695C17.1492 39.0754 17.147 39.377 17.1452 39.6877C17.1461 39.8217 17.1461 39.8217 17.147 39.9584C17.1477 40.1471 17.1474 40.3359 17.1462 40.5246C17.1448 40.8129 17.1482 41.101 17.1519 41.3893C17.152 41.5728 17.1518 41.7564 17.1513 41.9399C17.1526 42.0259 17.1539 42.1119 17.1552 42.2005C17.1487 42.6317 17.1313 42.8164 16.8633 43.17C16.6016 43.3594 16.6016 43.3594 16.2598 43.4143C15.8649 43.3508 15.7027 43.2578 15.4297 42.9688C15.2875 42.5931 15.3145 42.1878 15.3122 41.7915C15.3117 41.7155 15.3111 41.6394 15.3106 41.561C15.3096 41.4003 15.309 41.2395 15.3086 41.0788C15.3077 40.8341 15.3046 40.5894 15.3016 40.3446C15.3009 40.1881 15.3004 40.0316 15.3 39.875C15.2988 39.8024 15.2976 39.7297 15.2964 39.6549C15.2984 39.1889 15.38 38.8729 15.6251 38.4766C15.9651 38.1973 16.2912 38.2769 16.6993 38.3789Z" fill="#C59B5F"/>
<path d="M23.3399 45.0194C23.6143 45.2419 23.7158 45.3658 23.8282 45.703C23.84 45.9711 23.8466 46.2367 23.848 46.5049C23.8486 46.5835 23.8492 46.6621 23.8497 46.7431C23.8506 46.9094 23.8513 47.0758 23.8517 47.2421C23.8526 47.4958 23.8556 47.7495 23.8587 48.0033C23.8594 48.165 23.8599 48.3268 23.8602 48.4885C23.8615 48.5641 23.8627 48.6397 23.8639 48.7176C23.8616 49.2874 23.7388 49.601 23.3399 49.9999C23.1423 50.0361 23.1423 50.0361 22.9127 50.0426C22.7998 50.0485 22.7998 50.0485 22.6846 50.0544C22.3396 49.9703 22.2554 49.8113 22.0704 49.5116C22.0133 49.201 22.0156 48.8955 22.0185 48.5804C22.0181 48.491 22.0178 48.4016 22.0174 48.3095C22.0171 48.1209 22.0178 47.9324 22.0195 47.7439C22.0216 47.4553 22.0195 47.167 22.017 46.8785C22.0172 46.6951 22.0177 46.5117 22.0185 46.3282C22.0177 46.2421 22.0169 46.1559 22.0161 46.0671C22.0252 45.4719 22.0252 45.4719 22.2506 45.1635C22.6378 44.8984 22.8958 44.9016 23.3399 45.0194Z" fill="#C59B5F"/>
<path d="M16.6993 45.0196C16.9093 45.1614 16.9093 45.1614 17.0899 45.4103C17.1487 45.7243 17.1446 46.0345 17.1418 46.3533C17.1422 46.445 17.1425 46.5367 17.1429 46.6312C17.1432 46.8249 17.1425 47.0187 17.1408 47.2124C17.1387 47.5088 17.1408 47.8051 17.1433 48.1015C17.143 48.2899 17.1425 48.4782 17.1418 48.6665C17.1426 48.7551 17.1434 48.8437 17.1442 48.935C17.1351 49.5482 17.1351 49.5482 16.9049 49.8605C16.5566 50.097 16.2248 50.0745 15.8204 50.0001C15.4988 49.775 15.3989 49.5959 15.3321 49.2189C15.3205 48.9558 15.3137 48.6954 15.3122 48.4323C15.3117 48.3562 15.3111 48.2801 15.3106 48.2017C15.3096 48.041 15.309 47.8803 15.3086 47.7195C15.3077 47.4748 15.3046 47.2301 15.3016 46.9854C15.3009 46.8288 15.3004 46.6723 15.3 46.5158C15.2988 46.4431 15.2976 46.3705 15.2964 46.2956C15.2984 45.8302 15.3761 45.5113 15.6251 45.1173C15.9986 44.8851 16.283 44.8956 16.6993 45.0196Z" fill="#C59B5F"/>
<path d="M13.379 41.6992C13.5922 41.8425 13.5922 41.8425 13.7696 42.0899C13.8289 42.3957 13.8266 42.6973 13.8249 43.0081C13.8258 43.142 13.8258 43.142 13.8267 43.2787C13.8274 43.4675 13.8271 43.6562 13.8259 43.8449C13.8245 44.1332 13.8278 44.4213 13.8316 44.7096C13.8317 44.8931 13.8315 45.0767 13.831 45.2602C13.8323 45.3462 13.8336 45.4322 13.8349 45.5208C13.8283 45.9578 13.8134 46.1358 13.5344 46.4899C13.146 46.7812 12.9754 46.7476 12.5001 46.6797C12.2102 46.4641 12.1262 46.3393 12.0118 45.9961C12 45.7291 11.9934 45.4647 11.9919 45.1977C11.9914 45.1193 11.9908 45.0409 11.9902 44.9601C11.9893 44.7942 11.9887 44.6283 11.9883 44.4624C11.9874 44.2097 11.9843 43.9571 11.9813 43.7044C11.9806 43.543 11.9801 43.3816 11.9797 43.2201C11.9785 43.1451 11.9773 43.07 11.9761 42.9926C11.978 42.5224 12.0498 42.2066 12.3047 41.7969C12.6448 41.5176 12.9709 41.5972 13.379 41.6992Z" fill="#C59B5F"/>
<path d="M20.0197 41.6992C20.3242 41.9379 20.4434 42.1049 20.508 42.4805C20.5184 42.7376 20.524 42.992 20.5244 43.2491C20.5247 43.3233 20.525 43.3975 20.5254 43.4739C20.5258 43.6304 20.5261 43.7869 20.5261 43.9434C20.5263 44.1822 20.528 44.4209 20.5299 44.6596C20.5302 44.812 20.5304 44.9644 20.5305 45.1168C20.5312 45.1878 20.5319 45.2589 20.5326 45.332C20.5305 45.8114 20.4548 46.1577 20.2028 46.5637C19.9593 46.718 19.7301 46.7198 19.4467 46.7281C19.1209 46.6524 18.9797 46.5345 18.7502 46.2891C18.6769 45.9753 18.684 45.6671 18.6887 45.3461C18.6885 45.2544 18.6883 45.1626 18.688 45.0681C18.6881 44.8744 18.6894 44.6807 18.6919 44.487C18.6952 44.1905 18.6939 43.8943 18.692 43.5978C18.6927 43.4095 18.6936 43.2212 18.6948 43.0328C18.6941 42.8999 18.6941 42.8999 18.6934 42.7643C18.7048 42.1522 18.7048 42.1522 18.9306 41.8417C19.3184 41.5788 19.576 41.5815 20.0197 41.6992Z" fill="#C59B5F"/>
</g>
<defs>
<clipPath id="clip0_286_350">
<rect width="50" height="50" fill="white"/>
</clipPath>
</defs>
</svg>
