<svg width="17" height="12" viewBox="0 0 17 12" fill="none" xmlns="http://www.w3.org/2000/svg">
<path d="M16.6457 1.87364C16.451 1.13727 15.875 0.556364 15.1421 0.357273C13.8169 1.30047e-07 8.5 0 8.5 0C8.5 0 3.18581 1.30047e-07 1.85794 0.357273C1.12774 0.553636 0.551702 1.13455 0.354279 1.87364C0 3.21 0 6 0 6C0 6 0 8.79 0.354279 10.1264C0.548998 10.8627 1.12504 11.4436 1.85794 11.6427C3.18581 12 8.5 12 8.5 12C8.5 12 13.8169 12 15.1421 11.6427C15.8723 11.4464 16.4483 10.8655 16.6457 10.1264C17 8.79 17 6 17 6C17 6 17 3.21 16.6457 1.87364Z" fill="#2A2928"/>
<path d="M6.80162 8.57182L11.2179 6L6.80162 3.42818V8.57182Z" fill="white"/>
</svg>
